<svg id="SvgjsSvg1289" width="550" height="550" xmlns="http://www.w3.org/2000/svg" version="1.1" xmlns:xlink="http://www.w3.org/1999/xlink" xmlns:svgjs="http://svgjs.com/svgjs"><defs id="SvgjsDefs1290"></defs><g id="SvgjsG1291"><svg xmlns="http://www.w3.org/2000/svg" enable-background="new 0 0 3000 3000" viewBox="40.014 9.842 2919.968 2946.647" width="550" height="550"><linearGradient id="a" x1="1877.902" x2="483.526" y1="2070.403" y2="4144.859" gradientUnits="userSpaceOnUse"><stop offset=".008" stop-color="#182b9b" class="stopColor182b9b svgShape"></stop><stop offset="1" stop-color="#21032b" class="stopColor21032b svgShape"></stop></linearGradient><ellipse cx="1500.55" cy="2631.8" fill="url(#a)" rx="900.97" ry="190.7"></ellipse><path fill="#131e44" d="M1649.22 2819.92c.85-.76 1.7-1.53 2.56-2.29a2698.04 2698.04 0 0 1 35.11-30.74c11.11-9.57 21.99-19.63 34.08-27.97 43.73-30.16 96.48-32.39 147.78-34.45 33.99-1.36 68.19-.37 102.21-.37h51.17c15.66 0 31.4-.47 47.05.22 27.1 1.2 55.14 6.04 82.02.37 16.89-3.56 40.52-12.97 42.41-32.92 1.49-15.66-7.57-31.42-13.41-45.38-6.32-15.11-12.26-31.55-9.7-48.18 5.39-34.98 43.54-51.06 73.98-58.07 10.52-2.42 21.2-4.16 31.97-5.33-156.86-56.09-445.62-93.7-775.88-93.7-329.59 0-617.83 37.46-774.91 93.36 10.29 18.99 25.7 35.75 43.66 47.62 8.61 5.69 18.27 10.56 28.48 12.53 10.56 2.04 21.5 1.09 32.02-.7 24.46-4.18 47.86-13 71.86-19.08 20.66-5.23 44.57-10.04 65.01-1.39 9.01 3.81 17.07 10.54 22.8 18.45 4.23 5.84 6.91 12.73 6.46 20.02-.94 15.36-13.58 27.91-24.24 37.67-12.66 11.59-26.98 21.5-38.82 33.97-4.32 4.55-8.86 9.93-10.26 16.21-1.31 5.9 1.45 11.62 5.08 16.16 9.53 11.92 26.2 16.37 40.56 18.86 20.13 3.5 40.82 3.55 61.18 2.81 21.8-.79 43.54-2.81 65.22-5.08 17.29-1.81 34.58-4.03 51.93-5.22 16.47-1.13 32.9.86 48.73 5.66 17.88 5.42 34.5 14.89 47.34 28.58 11.77 12.55 19.88 28.1 24.45 44.63.92 3.31 1.69 6.66 2.34 10.04 73.76 4.13 151.22 6.34 231.12 6.34 50.61-.05 100.28-.93 148.64-2.63z" opacity=".25" class="color131e44 svgShape"></path><linearGradient id="b" x1="500.563" x2="995.97" y1="3454.183" y2="1650.898" gradientTransform="rotate(-14.465 715.107 2426.971)" gradientUnits="userSpaceOnUse"><stop offset=".02" stop-color="#d1e1ee" class="stopColord1e1ee svgShape"></stop><stop offset=".363" stop-color="#50a7e2" class="stopColor50a7e2 svgShape"></stop><stop offset="1" stop-color="#182b9b" class="stopColor182b9b svgShape"></stop></linearGradient><path fill="url(#b)" d="M896.76 2501.69c-73.3 63.15-212.22 34.62-238.53-11.54-26.31-46.16 65.23-89.43 132.57-54.52 67.34 34.92 139.92 36.8 105.96 66.06z"></path><path fill="#132368" d="M790.8 2435.64c-11.78-6.11-24.31-9.82-36.81-11.54 5.75 10.95 14.25 20.48 23.48 28.58 5.28 4.63 10.92 8.94 16.85 12.71 1.12.71 2.42 1.19 3.65 1.69 1.22.5 2.46.97 3.7 1.43 2.45.92 4.91 1.84 7.26 2.98 4.37 2.12 8.38 5.18 9.85 10.01 1.21 3.95.83 8.38-.81 12.16-3.21 7.38-10.33 12.49-17.09 16.37-8.35 4.8-17.46 8.26-26.6 11.22-7.6 2.46-15.32 4.52-23.06 6.5-6.2 1.58-12.44 3.04-18.64 4.62 52.71 12.09 120.24 7.19 164.18-30.67 33.96-29.27-38.62-31.15-105.96-66.06z" opacity=".2" class="color132368 svgShape"></path><linearGradient id="c" x1="2021.483" x2="2468.461" y1="2646.948" y2="2343.26" gradientTransform="rotate(-16.518 2310.686 2459.255)" gradientUnits="userSpaceOnUse"><stop offset=".02" stop-color="#d1e1ee" class="stopColord1e1ee svgShape"></stop><stop offset=".363" stop-color="#50a7e2" class="stopColor50a7e2 svgShape"></stop><stop offset="1" stop-color="#182b9b" class="stopColor182b9b svgShape"></stop></linearGradient><path fill="url(#c)" d="M2175.62 2533.77c75.02 36.74 184.84-17.44 196.73-61.74 11.89-44.3-74.03-60.45-122.65-16.58-48.63 43.87-108.84 61.3-74.08 78.32z"></path><path fill="#132368" d="M2355.97 2489.49c-1.14-6.17-3.58-12.37-8.16-16.81-4.17-4.04-9.83-5.86-15.58-5.46-7.95.56-15.36 4.62-21.67 9.23-4.43 3.24-8.41 7.03-12.67 10.48-4.23 3.42-8.61 6.68-13.26 9.5-8.93 5.4-19.07 9.03-29.63 8.23-8.56-.65-16.47-4.05-23.55-8.74-5.89-3.89-11.36-8.61-15.81-14.11-37.21 25.48-66.77 38.84-40 51.94 61.29 30.01 145.77-.65 181.15-37.03-.13-2.42-.38-4.84-.82-7.23z" opacity=".2" class="color132368 svgShape"></path><linearGradient id="d" x1="491.042" x2="986.43" y1="3386.862" y2="1583.648" gradientUnits="userSpaceOnUse"><stop offset=".02" stop-color="#d1e1ee" class="stopColord1e1ee svgShape"></stop><stop offset=".363" stop-color="#50a7e2" class="stopColor50a7e2 svgShape"></stop><stop offset="1" stop-color="#182b9b" class="stopColor182b9b svgShape"></stop></linearGradient><path fill="url(#d)" d="M839.17 2381.41c1.2-61.1-68.64-117.21-101.69-111.41-33.05 5.79-17.24 67.76 26.87 86.47 44.12 18.69 74.26 53.25 74.82 24.94z"></path><path fill="#132368" d="M795.14 2295.04c-.17 2.54.11 5.15.53 7.56 1.12 6.44 3.36 12.63 5.36 18.83.92 2.85 1.84 5.71 2.51 8.63.53 2.29.97 4.68.81 7.04-.36 5.27-1.3 11.17-5.29 15-3.6 3.46-8.86 4.14-13.63 4.18-3.38.03-6.77-.27-10.13-.65-3.9-.44-7.79-.86-11.63-1.74-3.46-.79-6.84-1.87-10.11-3.22 3.38 2.2 6.97 4.15 10.79 5.76 44.11 18.7 74.26 53.26 74.82 24.95.66-33.34-19.87-65.22-44.03-86.34z" opacity=".2" class="color132368 svgShape"></path><linearGradient id="e" x1="1873.421" x2="521.819" y1="14.653" y2="3641.738" gradientUnits="userSpaceOnUse"><stop offset=".008" stop-color="#182b9b" class="stopColor182b9b svgShape"></stop><stop offset="1" stop-color="#21032b" class="stopColor21032b svgShape"></stop></linearGradient><path fill="url(#e)" d="M2620.45 1307.12c-126.49 51.74-263.51-30.12-342.7 425.93-51.6 252.75-273.59 56.72-296.03 258.74-22.39 202.02-224.24 87.24-290.19 293.47 0 0-208.65 108.19-279.74-126.13-71.09-234.31-149.9-200.86-396.58-244-246.68-43.13-155.66-409.41-519.47-413.94-323.61-4.02-525.99-586.21 0-900.93 515.99-308.73 790.28-42.52 1214.19-277.9 390.21-216.67 668.65-158.92 843.4-30.52 106.7 78.37 174.73 183.09 205.94 267.75 9.27 25.15 17.52 49.83 24.78 74.02 107.02 356.48 1.15 606.12-163.6 673.51z"></path><path fill="#f4f2f3" d="M2784.05 633.61a830.885 830.885 0 0 1-53.14 16.78c-83.13 23.24-169.4 34.37-255.58 36.95-88.46 2.64-177.13-3.68-264.59-16.94-86.64-13.12-172.29-33.08-255.83-59.55-38.96-12.35-77.47-26.14-115.34-41.5-18.32-7.43-36.49-15.23-54.48-23.44-4.16-1.89-8.31-3.81-12.46-5.75-.28-.14-.56-.28-.85-.42 1.18.2 2.37.36 3.42.58 9.15 1.92 18.33 3.63 27.56 5.09 21.39 3.38 43.16 5.57 64.83 4.62 17.66-.78 36.73-3.5 51.97-13.12 14.37-9.07 22.28-24.15 28.3-39.51 6.26-15.94 10.88-34.48 23.87-46.52 6.89-6.39 16.74-11.78 26.05-13.21 9.49-1.47 18.95.93 27.71 4.47 17.19 6.94 32.62 18.56 50.92 22.66 16.26 3.63 34.14-.88 47.46-10.67 13.61-10.01 22.74-24.66 33.99-37 14.6-16.01 33.26-27.26 55-30.02 24.11-3.05 48.59 2.98 71.4 10.28 22.56 7.21 44.42 16.4 66.92 23.76 16.92 5.54 33.62 12.51 51.06 16.27 9.86 2.13 20.22 2.79 29.32-2.25 10.51-5.81 17.99-16.55 24.78-26.1 12.71-17.86 24.63-36.15 38.07-53.49 13.25-17.1 27.27-33.67 42.69-48.85 5.22-5.13 10.62-10.12 16.23-14.89 106.7 78.37 174.73 183.09 205.94 267.75 9.27 25.15 17.52 49.83 24.78 74.02zM200.77 1263.2c-18.02-49.47-28.01-103.96-28.03-160.79 12.93-.94 17.31 16.92 20.48 16.76 13.12-10.6 29.74-23.01 43.87-9.35-48.36-65.65 77.45-176.4 124.23 20.49 0 0 10.29-7.1 35-8.34 24.3-1.18 18.02 22.64 18.02 22.64 9.32-15.41 18.04-19.48 27.79.57 0 0-.67-16.8 26.32-25.67 26.46-8.66 29.43 34.5 29.43 34.5 95.94 11.87-113.81 80.55-297.11 109.19z" opacity=".1" class="colorf4f2f3 svgShape"></path><linearGradient id="f" x1="1218.799" x2="299.195" y1="-89.828" y2="1150.568" gradientUnits="userSpaceOnUse"><stop offset=".02" stop-color="#d1e1ee" class="stopColord1e1ee svgShape"></stop><stop offset=".363" stop-color="#50a7e2" class="stopColor50a7e2 svgShape"></stop><stop offset="1" stop-color="#182b9b" class="stopColor182b9b svgShape"></stop></linearGradient><path fill="url(#f)" d="m962.97 695.1-321.63 15.01c-21.18.99-39.66-14.23-42.75-35.2l-45.92-311.33c-3.66-24.82 15.49-47.14 40.57-47.29l323.55-1.99c20.56-.13 38.08 14.9 41.08 35.25l44 298.32c3.57 24.14-14.5 46.09-38.9 47.23z"></path><path fill="#132368" d="m1001.88 647.85-44-298.32c-.94-6.37-3.3-12.22-6.73-17.24-8.3 52.55-24.84 104.24-48.84 151.19-15.79 30.89-35.33 60.24-59.94 84.82-24.97 24.94-55.09 43.19-88.39 54.75-51.09 17.73-105.55 21.82-159.78 22.01l4.4 29.83c3.09 20.97 21.58 36.19 42.75 35.2l321.63-15.01c24.39-1.12 42.46-23.07 38.9-47.23z" opacity=".1" class="color132368 svgShape"></path><linearGradient id="g" x1="1489.924" x2="570.32" y1="111.178" y2="1351.574" gradientUnits="userSpaceOnUse"><stop offset=".02" stop-color="#d1e1ee" class="stopColord1e1ee svgShape"></stop><stop offset=".363" stop-color="#50a7e2" class="stopColor50a7e2 svgShape"></stop><stop offset="1" stop-color="#182b9b" class="stopColor182b9b svgShape"></stop></linearGradient><path fill="url(#g)" d="m1383.02 672.46-304.97 14.23c-20.08.94-37.61-13.49-40.54-33.38L993.97 358.1c-3.47-23.53 14.69-44.7 38.47-44.84l306.79-1.89c19.5-.12 36.11 14.13 38.96 33.42l41.72 282.87c3.38 22.9-13.76 43.72-36.89 44.8z"></path><path fill="#132368" d="M1404.46 522.92c-19.05-.07-38.1-.1-57.15.19-25.87.4-51.75 1.42-77.52 3.78-25.46 2.33-50.82 5.99-75.78 11.58-12.77 2.86-25.43 6.22-37.92 10.13-9.76 3.05-19.48 6.29-28.67 10.81-14.53 7.14-27.62 17.02-38.5 29.01-10.61 11.7-19.04 25.26-25.39 39.7-6.57 14.94-10.96 30.78-13.56 46.88-.08.48-.14.96-.21 1.43 7.45 6.83 17.49 10.76 28.28 10.26l304.97-14.23c23.13-1.08 40.27-21.89 36.89-44.8l-15.44-104.74z" opacity=".1" class="color132368 svgShape"></path><linearGradient id="h" x1="1464.858" x2="545.254" y1="92.595" y2="1332.991" gradientUnits="userSpaceOnUse"><stop offset=".02" stop-color="#d1e1ee" class="stopColord1e1ee svgShape"></stop><stop offset=".363" stop-color="#50a7e2" class="stopColor50a7e2 svgShape"></stop><stop offset="1" stop-color="#182b9b" class="stopColor182b9b svgShape"></stop></linearGradient><path fill="url(#h)" d="m1028.59 1119.58-315.76 19.69c-22.73 1.42-42.77-14.82-46.09-37.35l-46.25-313.59c-3.79-25.73 15.52-49.08 41.5-50.18l316.69-13.42c22.42-.95 41.94 15.19 45.22 37.39l45.32 307.32c3.74 25.38-15.02 48.54-40.63 50.14z"></path><path fill="#d1e1ee" d="M943.51 769.55c.81 4.74-2.07 9.07-6.42 9.68-4.35.61-8.53-2.74-9.34-7.47-.81-4.74 2.07-9.07 6.42-9.68 4.35-.61 8.53 2.73 9.34 7.47zM968.51 768.9c.81 4.74-2.07 9.07-6.42 9.68-4.35.61-8.53-2.74-9.34-7.47-.81-4.74 2.07-9.07 6.42-9.68 4.35-.62 8.53 2.73 9.34 7.47zM991.3 768.3c.81 4.74-2.07 9.07-6.42 9.68-4.35.61-8.53-2.74-9.34-7.47-.81-4.74 2.07-9.07 6.42-9.68 4.35-.61 8.54 2.74 9.34 7.47z" opacity=".5" class="colord1e1ee svgShape"></path><path fill="#132368" d="m1069.22 1069.44-45.32-307.32c-1.63-11.07-7.31-20.64-15.37-27.33-3.46 9.51-7.15 18.94-11.32 28.18-9.43 20.93-21.51 40.71-33.85 60.03-24.17 37.83-51.68 73.52-82.01 106.61-60.73 66.27-132.67 121.52-212.41 162.98-1.1.57-2.21 1.13-3.32 1.7l1.12 7.62c3.32 22.53 23.35 38.77 46.09 37.35l315.76-19.69c25.61-1.59 44.37-24.75 40.63-50.13z" opacity=".1" class="color132368 svgShape"></path><path fill="#21032b" d="m1473.54 1105.64-336.15 25.45c-25.41 1.92-47.99-16.13-51.71-41.34l-49.14-333.22c-4.21-28.52 17.21-54.4 46.01-55.61l328.88-13.81c24.34-1.02 45.66 16.14 49.87 40.13l56.41 321.58c4.96 28.27-15.55 54.65-44.17 56.82z" opacity=".35" class="color21032b svgShape"></path><path fill="#50a7e2" d="m1600.31 1054.07-389.84 29.52c-29.47 2.23-55.66-18.7-59.97-47.94l-57-386.45c-4.88-33.07 19.96-63.09 53.36-64.49l381.41-16.02c28.22-1.18 52.96 18.72 57.84 46.54l65.42 372.94c5.75 32.8-18.03 63.39-51.22 65.9z" class="color50a7e2 svgShape"></path><path fill="#132368" d="m1651.53 988.18-65.42-372.94c-4.88-27.82-29.62-47.73-57.84-46.54l-161.57 6.78c-20.47 15.4-37.25 35.74-44.98 60.47-7.76 24.81-6.33 51.34-2.97 76.77 3.59 27.15 9.62 53.93 13.02 81.11 2.78 22.26 4.18 45.27.05 67.46-3.57 19.13-11.89 37.29-26.71 50.28-18.24 15.99-43.31 22.65-67.02 24.48-34.49 2.66-69.26-.68-103.24-6.62l15.67 106.23c4.31 29.24 30.5 50.18 59.97 47.94l389.84-29.52c33.17-2.52 56.95-33.11 51.2-65.9z" opacity=".2" class="color132368 svgShape"></path><path fill="#21032b" d="m1007.47 1593.73-354.07 35.29c-26.3 2.62-50.02-15.88-53.87-42.03l-52.3-354.64c-4.17-28.25 16.37-54.15 44.82-56.54l355.39-29.86c26.07-2.19 49.34 16.28 53.12 42.17l50.99 349.2c4.07 27.94-15.99 53.61-44.08 56.41z" opacity=".35" class="color21032b svgShape"></path><path fill="#182b9b" d="m1524.04 1511.22-302.11 30c-23.28 2.31-44.28-14.07-47.69-37.22l-45.36-307.55c-3.72-25.22 14.78-48.27 40.2-50.11l295.04-21.3c22.43-1.62 42.44 14 46.33 36.14l52.42 298.84c4.42 25.13-13.46 48.68-38.83 51.2z" class="color182b9b svgShape"></path><path fill="#d1e1ee" d="M1202.29 798.22L1538.43 782l2.13 26.16-336.38 15.54zM1197.99 754.22l336.45-12.38 1.82 22.33-336.38 15.54zM1207.33 842.31l156.4-7.86 1.45 26.14-155.95 7.2zM872.34 357.92c.68 4.76-2.31 9.01-6.68 9.5-4.37.49-8.45-2.97-9.13-7.73-.68-4.76 2.31-9.01 6.68-9.5 4.37-.48 8.45 2.98 9.13 7.73zM897.35 357.95c.68 4.76-2.31 9.01-6.68 9.5-4.37.49-8.45-2.97-9.13-7.73-.68-4.76 2.31-9.01 6.68-9.5 4.36-.48 8.45 2.98 9.13 7.73zM920.15 357.98c.68 4.76-2.31 9.01-6.68 9.5-4.37.49-8.45-2.97-9.13-7.73-.68-4.76 2.31-9.01 6.68-9.5 4.36-.49 8.45 2.97 9.13 7.73zM1293.74 349.06c.68 4.74-2.31 9.08-6.68 9.71-4.37.62-8.45-2.71-9.13-7.45-.68-4.74 2.31-9.08 6.68-9.71 4.36-.62 8.45 2.71 9.13 7.45zM1318.75 348.33c.68 4.74-2.31 9.08-6.68 9.71-4.37.62-8.45-2.71-9.13-7.45-.68-4.74 2.31-9.08 6.68-9.71 4.36-.63 8.45 2.71 9.13 7.45zM1341.55 347.66c.68 4.74-2.31 9.08-6.68 9.71-4.37.62-8.45-2.71-9.13-7.45-.68-4.74 2.31-9.08 6.68-9.71 4.36-.63 8.45 2.71 9.13 7.45zM715.76 918.47l273.17-11.97 2.5 19.58-272.75 11.24zM709.86 885.71l274.6-9.46 2.16 16.85-273.82 11.62zM722.22 951.03l125.9-5.59 2.27 19.28-125.28 5.01zM645.36 493.88l273.11-8.07 2.41 18.56-273.3 8.48zM640.63 461.13l273.59-3.82 2.05 15.84-273.42 6.94zM650.72 526.73l130.24-4.82 1.89 19.04-129.89 4.77zM1076.59 481.17l273.11-8.07 2.41 18.57-273.29 8.48zM1071.86 448.43l273.59-3.82 2.05 15.83-273.41 6.94zM1081.96 514.03l130.24-4.82 1.88 19.04-129.89 4.77z" opacity=".5" class="colord1e1ee svgShape"></path><g fill="#000000" class="color000 svgShape"><path fill="#601843" d="m1128.55 2335.44 85.29-312.69 705.74-5.93 128.95 286.33s-388 381.92-609.03 283.48c-221.04-98.45-310.95-251.19-310.95-251.19z" class="color601843 svgShape"></path><path fill="#ffafaa" d="M2002.11 1521.34s220.65 270.25 166.71 340.42c-53.95 70.17-288.89-199.78-288.89-199.78l122.18-140.64z" class="colorffafaa svgShape"></path><path fill="#fc7981" d="M2002.11 1521.34s220.65 270.25 166.71 340.42c-53.95 70.17-288.89-199.78-288.89-199.78l122.18-140.64z" opacity=".25" class="colorfc7981 svgShape"></path><path fill="#dd8a8a" d="M2002.11 1521.34s220.65 270.25 166.71 340.42c-53.95 70.17-288.89-199.78-288.89-199.78l122.18-140.64z" opacity=".25" class="colordd8a8a svgShape"></path><linearGradient id="i" x1="1712.163" x2="2191.023" y1="790.776" y2="2307.167" gradientUnits="userSpaceOnUse"><stop offset="0" stop-color="#ffe245" class="stopColorffe245 svgShape"></stop><stop offset=".526" stop-color="#de007b" class="stopColorde007b svgShape"></stop><stop offset="1" stop-color="#e38427" class="stopColore38427 svgShape"></stop></linearGradient><path fill="url(#i)" d="M1747.59 1129.51s231.27 128.46 351.8 457c0 0-140.92 185.15-219.46 113.6-78.54-71.55-132.34-570.6-132.34-570.6z"></path><path fill="#7a1752" d="M1960.63 1339.85c-.43.5-.86.99-1.26 1.52-3.92 5.16-6.26 11.31-7.85 17.54-3.25 12.75-3.34 26.13-6.99 38.79-1.52 5.27-3.8 10.46-7.63 14.48-3.14 3.29-7.44 5.08-11.78 6.16-12.8 3.18-26.85 1.57-39.73-.22-16.55-2.3-32.89-6.02-49.08-10.11-14.58-3.68-29.05-7.79-43.54-11.81-4.99-1.39-9.99-2.79-15.03-3.98-3.23-.77-6.5-1.35-9.79-1.83 31.7 133.12 72.99 274.21 111.98 309.73 78.53 71.55 219.46-113.6 219.46-113.6-36.69-100.02-86.8-181.59-138.76-246.67z" enable-background="new" opacity=".25" class="color7a1752 svgShape"></path><path fill="#ffafaa" d="M1153.22 1493.14s-285.13 383.6-172.87 446.79c112.26 63.18 297.16-318.24 297.16-318.24l-124.29-128.55z" class="colorffafaa svgShape"></path><path fill="#dd8a8a" d="M1153.22 1493.14s-285.13 383.6-172.87 446.79c112.26 63.18 297.16-318.24 297.16-318.24l-124.29-128.55z" opacity=".25" class="colordd8a8a svgShape"></path><path fill="#dd8a8a" d="M1102.3 1669.91c31.42 31.64 60.34 66.24 82.66 104.97.92 1.6 1.75 3.24 2.64 4.85 51.95-79.76 89.9-158.04 89.9-158.04l-124.29-128.55s-45.15 60.76-92.45 137.89c14.2 12.59 28.17 25.42 41.54 38.88z" opacity=".25" class="colordd8a8a svgShape"></path><path fill="#132368" d="M1275.35 1172.18s-70.74 46.84 74.84 175.3l38.11-84.91-112.95-90.39z" class="color132368 svgShape"></path><linearGradient id="j" x1="1094.349" x2="1581.516" y1="968.379" y2="2511.077" gradientUnits="userSpaceOnUse"><stop offset="0" stop-color="#ffe245" class="stopColorffe245 svgShape"></stop><stop offset=".526" stop-color="#de007b" class="stopColorde007b svgShape"></stop><stop offset="1" stop-color="#e38427" class="stopColore38427 svgShape"></stop></linearGradient><path fill="url(#j)" d="M1397.24 1145.78s-255.37 232.55-349.53 456.66c0 0 134.24 105.37 191.53 91.61 57.29-13.77 158-548.27 158-548.27z"></path><path fill="#7a1752" d="M1247.33 1676.13c-3.16-16.55-3.63-33.57-2.2-50.33 1.44-16.9 5.04-33.31 9.6-49.61 9.98-35.63 30.07-69.59 29.41-107.49-2.08 3.08-4.15 6.16-6.2 9.25-8.97 13.52-17.76 27.24-28.17 39.73-10.2 12.24-22.01 22.96-35.51 31.45-15.52 9.76-32.29 16.51-50.52 18.85-8.34 1.07-16.76 1.41-25.16 1.72-8.57.32-17.23.21-25.54 2.61-13.07 3.77-22.64 13.02-31.12 23.22-5.57 6.7-10.96 13.58-17.11 19.71 38.01 27.64 129.69 89.55 174.43 78.8 3.19-.77 6.73-3.22 10.58-7.16-.97-3.54-1.8-7.13-2.49-10.75z" enable-background="new" opacity=".25" class="color7a1752 svgShape"></path><path fill="#182b9b" d="M1909.85 1882.53s170.81-22.67 197.69 82.03c26.88 104.7-179.69 19.73-179.69 19.73l-18-101.76z" class="color182b9b svgShape"></path><linearGradient id="k" x1="1261.387" x2="1749.99" y1="901.048" y2="2448.294" gradientUnits="userSpaceOnUse"><stop offset="0" stop-color="#ffe245" class="stopColorffe245 svgShape"></stop><stop offset=".526" stop-color="#de007b" class="stopColorde007b svgShape"></stop><stop offset="1" stop-color="#e38427" class="stopColore38427 svgShape"></stop></linearGradient><path fill="url(#k)" d="M1152.87 2087.78c-27.42 118.85 49.11 105.74 214.52 253.34 139.05 124.08 280.84-106.88 622.98-206.57-129.53-499.5 77.75-954.81-360.09-1044.94s-395.28 642.18-477.41 998.17z"></path><path fill="#f4f2f3" d="M1375.65 1392.83c-10.74 77.17 252.36 146.67 421.41 63.77 169.05-82.89-32.26-147.41-98.42-169.69s-29.78 124.38-138.86 119.49-175.78-73.57-184.13-13.57z" enable-background="new" opacity=".1" class="colorf4f2f3 svgShape"></path><path fill="#601843" d="M1832.9 1192.9s77.49 73.94 71 140.29c0 0-64.92-130.01-71-140.29zM1361.95 1175.89s-68.21 79.55-65.94 152.91c0 0 72.02-142.64 65.94-152.91z" class="color601843 svgShape"></path><path fill="#f4f2f3" d="M1723.49 1160.54c7.04-55.02 166.64 133.69 117.54 151.05s-123.49-104.54-117.54-151.05z" enable-background="new" opacity=".1" class="colorf4f2f3 svgShape"></path><path fill="#7a1752" d="M1311.69 1603.57c-9.99-23.46 71.34 84.37 242.4 42.38 0 .01-173.96 118.34-242.4-42.38zM1436.07 1546.07s293.7 45.91 414.89-52.93c0 0-48.59 100.61-186.83 112.1s-228.06-59.17-228.06-59.17z" enable-background="new" opacity=".25" class="color7a1752 svgShape"></path><path fill="#7a1752" d="M1921.57 1926.14c-21.49 7.22-44.3 10.34-64.8 20.33-18.49 9-33.99 22.33-48.8 36.39-15.79 14.98-31.4 30.16-49.44 42.47-17.46 11.92-36.76 18.35-57.79 19.77-22.49 1.52-45.07-.19-67.51 2.48-24.9 2.97-49.06 10.75-71.57 21.7-23.17 11.27-44.65 25.86-64.26 42.54-10.8 9.18-19.9 18.53-28.25 29.92-17.64 24.07-33.65 49.51-54.07 71.42-14.26 15.3-37.54 36.76-60.12 25.27-10.81-5.5-19.67-16.77-22.3-28.58-3.59-16.08.49-33.5 5.28-48.88 5.48-17.6 13.12-34.55 21.81-50.79 7.98-14.91 16.99-29.69 27.06-43.27 9.46-12.75 20.66-24.41 34.67-32.14 13.67-7.55 29.1-10.91 44.49-12.75 18.28-2.19 36.8-2.94 55.2-2.31 20.42.7 40.82 2.28 61.26 2.22 19.53-.06 40.25-1.1 58.52-8.69 9.03-3.75 17.06-9.4 23.16-17.11 7.05-8.92 10.24-19.68 12.23-30.7 1.8-9.98 2.91-20.14 6.2-29.79 3.16-9.26 8.37-17.24 15.13-24.26 10.2-10.59 22.54-19.04 34.79-27.06 28.18-18.47 58.65-34.66 82.99-58.31 21.77-21.15 39.09-54.74 21.89-83.98-9.92-16.87-25.41-30.59-40.61-42.59-15.66-12.37-32.5-23.55-50.29-32.62-19.27-9.82-39.94-13.46-61.17-8.22-20.75 5.12-39.23 16.54-58.32 25.72-9.7 4.67-19.79 9.2-30.28 11.78-14.36 3.53-28.73 7.04-43.04 10.79-28.11 7.36-56.1 15.16-84.24 22.42-50.41 13.01-102.73 9.95-152.78-3.29-36.35-9.62-71.19-23.82-105.74-38.61-19.27 145.8-32.74 290.88-58 400.36-27.42 118.85 49.11 105.74 214.52 253.34 139.05 124.08 280.84-106.88 622.98-206.57-19.41-74.84-31.25-148.68-38.84-220.46a271.58 271.58 0 0 1-29.96 12.06z" enable-background="new" opacity=".25" class="color7a1752 svgShape"></path><path fill="#7a1752" d="M1286.24 2251.66c-15.46-27.75-31.85-55.9-40.97-86.5-5.35-17.94-7.64-36.84-4.67-55.42 3.16-19.75 11.99-37.8 23.71-53.85 20.38-27.9 48.82-47.76 79.19-63.49 15.65-8.1 31.76-15.23 47.82-22.46 19.22-8.65 37.8-18.64 55.77-29.67 17.18-10.55 33.55-22.24 50.49-33.14 7.19-4.63 14.76-8.98 23.01-11.4 6.43-1.89 14.21-3.35 20.86-1.74 10.38 2.52 13.76 14.3 20.35 21.39 5.53 5.95 12.07 9.3 20.1 10.32 8.24 1.05 16.67.29 24.84-.99 15.47-2.42 31.69-6.32 45.61-13.63 15.76-8.28 29.72-19.9 41.85-32.86 12.59-13.46 23.56-28.75 31.55-45.4 3.34-6.95 6.17-14.19 8.09-21.67 1.61-6.28 2.63-12.85 5.69-18.65 4.63-8.8 13.58-9.72 22.64-10.27 11.07-.67 21.85.23 32.91.52 6.61.17 13.28.14 19.84-.72 5.06-.67 11.71-1.7 15.21-5.86 7.02-8.36.11-19.66-6.51-25.51-9.26-8.19-21.22-13.35-32.76-17.4-9.98-3.5-20.53-6.53-31.11-7.44-16.63-1.43-34.17 4.11-49.21 10.66-18.01 7.84-34.81 18.71-49.67 31.55-6.5 5.62-12.49 11.58-17.69 18.43-4.78 6.29-9.14 12.92-14.44 18.8-4.82 5.36-10.54 10.08-17.51 12.29-7.9 2.51-16.7 1.1-24.58-.73-9.57-2.21-18.91-5.78-28.71-6.94-9.92-1.17-20.02-.96-29.94.1-20.73 2.22-40.88 8.25-60.38 15.41-18.84 6.91-37.21 15.01-55.78 22.62-19.62 8.04-39.59 15.21-59.28 23.08-58.1 23.24-115.39 48.72-173.96 70.75-7.44 52.84-15.65 102.23-25.73 145.94-23.77 103.05 30.6 106.9 153.3 202.31-6.22-13.02-12.91-25.82-19.93-38.43zM1984.89 2112.61c-7.91-32.87-14.42-65.53-19.8-97.88-.23.16-.46.33-.69.49-19.04 13.68-38.18 27.25-56.57 41.8-9.06 7.16-17.64 14.93-26.84 21.9a251.668 251.668 0 0 1-24.51 16.42c-34.78 20.42-73.96 31.01-113.81 35.68-16.3 1.91-32.48 2.25-48.87 1.49-17.38-.8-34.71-2.39-52.07-3.47-33.81-2.11-69.94-3.27-101.87 9.88-14.9 6.14-29.74 15.89-39.31 29.08-8.82 12.15-12.88 28.23-10.06 43.05 3.2 16.85 15.8 29.2 32.32 33.25 20.15 4.94 41.48-1.17 60.89-6.57 19.84-5.53 39.75-11.05 60.57-9.19 21.36 1.92 40.96 10.85 61.87 14.75 9.02 1.68 18.12 2.29 27.21 2.06 52.69-29.52 112.18-59.67 180.54-85.34 7.11-6.58 14.15-13.23 21.3-19.77 13.24-12.08 31.09-22.92 49.7-27.63zM1488.47 1117.01c-1.11 15.64 18.79 136.69 122.92 121.56 102.1-14.84 85.84-100.71 86.87-115.49.24-3.47.06-6.94-.36-10.4-21.11-10.32-43.61-18.11-67.61-23.05-52.3-10.76-99.07-3.2-140.89 18.45-.39 2.96-.72 5.94-.93 8.93z" enable-background="new" opacity=".25" class="color7a1752 svgShape"></path><path fill="#131e44" d="M1715.52 732.81c-30.62-32.64 73.88-120.43-22.71-118.15 33.89-33.65-33.95-89.2-83.73-41.04-141-69.69-168.84 50.06-169.46 109.03-44.96 1.38-58.83 113.05-4.44 146.52-18.04 53.66 17.89 110.97 73.72 97.66-25.8 47.37 121.65 77.02 118.76-23.27-1.7-59.01 163.23-90.42 87.86-170.75z" class="color131e44 svgShape"></path><path fill="#d1c63d" d="M1488.4 1109.43c-12.15 26.06 71.35 114.91 139.42 89.86 68.08-25.05 87.14-85.51 69.17-108.38-8.19-10.43-163.39-78.43-208.59 18.52z" class="colord1c63d svgShape"></path><path fill="#ffafaa" d="m1500.8 1102.84 41.19-108.77 22.91-68.48 84.09-9.04 31.3 156.34 6.89 30.56c.01-.01-73.94 152.94-186.38-.61z" class="colorffafaa svgShape"></path><path fill="#dd8a8a" d="M1577.24 1031.46c13.75 14.17 29.7 25.53 48.85 30.95 17.08 4.83 35.24 5.64 52.85 3.68L1649 916.54l-84.09 9.04-21.07 62.99c9.95 15.18 20.75 29.87 33.4 42.89z" opacity=".35" class="colordd8a8a svgShape"></path><path fill="#ffafaa" d="M1519.58 905.11s35.16 115.26 137.4 135.56c102.25 20.3 129.33-162.05 87.02-330.32 0 0-34.24-76.93-170.07-54.32-135.82 22.6-70.99 180.3-70.99 180.3s-43.9-12.03-31.7 30.59c15.44 53.93 48.34 38.19 48.34 38.19z" class="colorffafaa svgShape"></path><path fill="#dd8a8a" d="M1503.32 838.97c.07 1.27.09 2.54.1 3.82 9.29 3.01 17.37 8.23 24.07 15.43 4.2 4.52 7.71 9.61 11.89 14.15 4.28 4.64 8.96 8.94 14.05 12.69a85.403 85.403 0 0 0 34.38 15.09c12.95 2.53 26.36 1.38 39.1-1.79 6.4-1.59 12.67-3.71 18.69-6.39 5.88-2.62 11.43-5.94 16.83-9.45 2.86-1.86 5.62-3.87 8.13-6.19 2.07-1.91 3.99-3.93 6.2-5.69 3.42-2.71 7.04-3.95 11.42-3.79 6.73.25 13.52 2.09 19.88 4.21 6.44 2.15 12.63 5.07 19.12 7.05 11.61 3.54 23.97 3.21 35.69.39.83-22.59.1-46.47-2.17-70.97-8.99-.42-252.11 8.84-263.85 10.67.31 1.72 6.37 19.06 6.47 20.77z" opacity=".35" class="colordd8a8a svgShape"></path><path fill="#131e44" d="M1513.66 843.85c4.28 5.96 26.53 43.4 53.75 72.52 27.22 29.12 45.95-7.54 122.5-6.53 76.55 1.01 68.5 16.75 68.5 16.75s18.72 120.69-83.1 119.94c-136.67-1.01-153.64-97.04-155.86-130.52-2.22-33.48-20.24-63.27-18.37-71.47 1.87-8.21 12.58-.69 12.58-.69z" class="color131e44 svgShape"></path><path fill="#21032b" d="M1709.6 1022.24c-5.68-.44-11.13-2.31-16.13-4.99-5.49-2.93-9.82-7.6-13.42-12.59-3.54-4.91-6.47-10.24-10.14-15.06-4.13-5.42-9.59-10.65-16.5-11.93-7.8-1.44-15.91.69-23.69 1.34-7.41.62-14.82 1.39-22.26 1.42-7.35.03-14.84-.63-21.83-3.06-6.64-2.31-12.53-6.43-17.72-11.12-9.98-9-16.7-20.77-22.14-32.91-1.96-4.37-3.83-8.47-6.86-12.22-2.83-3.5-6.14-6.62-9.75-9.31-3.3-2.46-7-4.71-10.92-6.36.55 3.46.98 6.99 1.21 10.56 2.22 33.48 19.19 129.51 155.86 130.52 43.62.32 65.11-21.65 75.43-46.87-10.88 12.31-24.24 23.88-41.14 22.58z" opacity=".5" class="color21032b svgShape"></path><path fill="#ffffff" d="M1641.7 936.49c5.56-7.47 16.65 9.23 42.17 11.57 18.98 1.74 35.21-18.56 48.64-9.36s-13.34 48.92-50.1 44.74c-42.9-4.87-49.21-35.53-40.71-46.95z" class="colorfff svgShape"></path><path fill="#dd8a8a" d="M1681.52 846.18s11.38 18.46 2.66 22.26c-8.72 3.81-14.06-7.49-14.53-1.93-.47 5.56 10.49 16.63 20.95 4.57 10.47-12.06-1.07-24.58-1.07-24.58l-8.01-.32zM1478.45 862.3c.43 3.22 17.86 16.51 21.65 10.53 3.79-5.98-11.31-31.17-14.25-27.82-2.94 3.35 11.24 24.18 11.24 24.18s-19.6-13.98-18.64-6.89z" class="colordd8a8a svgShape"></path><path fill="#131e44" d="M1786.71 651.31c-19.79-62.75-110.33-13.22-153.62-39.07-43.28-25.84-98.07-20.5-147.25 36.33-49.17 56.83-24.79 148.73-1.59 162.89 23.2 14.16 9.48 45.16 25.09 44.27 10.8-.62 1.04-22.13-1.76-50.41 19.02 30.21 45.74-44.49 87.7-53.23 43.02-8.96 52.71-25.8 100.16-15.46 32.69 7.13 40.2-10.85 41.04-23.74 27.62-2.6 62.6-22.36 50.23-61.58z" class="color131e44 svgShape"></path><path fill="#f4f2f3" d="M1741.16 628.96c9.37-1.32 34.63 18.44 28.27 30.47s-52.81 13.31-56.32 9.06c-3.5-4.25 46.08-2.21 38.27-15.42-7.81-13.21-18.83-22.9-10.22-24.11zM1476.41 695.95s49.08 51.07 61.25 27.7c12.17-23.36 29.05-51.82 29.05-51.82l13.03 49.2 19.13-54.71s4.04 28.29 20.14 29.95c16.09 1.66 51.9-52.71 51.9-52.71s-46.39 26.34-50.04 16.66c-3.64-9.66-17.26-39.87-27.52-34.89-10.27 4.98-25.23 23.88-25.23 23.88s-26.67-5.23-31.69.91c-9.04 11.04 10.16 59.12-14.53 55.18-24.68-3.95-45.49-9.35-45.49-9.35z" opacity=".1" class="colorf4f2f3 svgShape"></path><path fill="#231f20" d="m1636.12 831.64-.14.38-73.6 13.93 69.01 8.7 133.03-14.38 47.98-20.08-125.03-.79z" class="color231f20 svgShape"></path><linearGradient id="l" x1="1629.983" x2="1520.913" y1="712.069" y2="913.099" gradientUnits="userSpaceOnUse"><stop offset=".008" stop-color="#132368" class="stopColor132368 svgShape"></stop><stop offset="1" stop-color="#21032b" class="stopColor21032b svgShape"></stop></linearGradient><path fill="url(#l)" d="m1562.38 845.95 69.34-11 2.03-107.53-95.68 39.5c0-.01-68.86 59.5 24.31 79.03z"></path><linearGradient id="m" x1="1808.678" x2="1327.504" y1="785.866" y2="1047.837" gradientTransform="rotate(-13.155 1580.53 973.56)" gradientUnits="userSpaceOnUse"><stop offset=".008" stop-color="#182b9b" class="stopColor182b9b svgShape"></stop><stop offset="1" stop-color="#21032b" class="stopColor21032b svgShape"></stop></linearGradient><path fill="url(#m)" d="m1818.88 741.79 4.04 54.55c1.15 15.45-10.44 28.93-25.9 30.07l-46.41 3.44-35.47 2.63-9.76.72-59.02 4.38c-.58.03-1.15.05-1.68.07-3.21.05-6.34-.46-9.26-1.44-2.54-.84-4.93-2.05-7.09-3.55a28.429 28.429 0 0 1-10.4-13.4c-.86-2.41-1.41-4.93-1.61-7.62l-4.01-54.55c-1.19-15.49 10.41-28.93 25.85-30.07l46.45-3.44 70.89-5.25 9.76-.73 23.59-1.74c3.83-.27 7.52.23 10.94 1.38 4.63 1.54 8.74 4.26 11.96 7.85 2.36 2.6 4.25 5.66 5.48 9.05.89 2.39 1.45 4.96 1.65 7.65z"></path><path fill="#132368" d="m1554.64 785.22-131.86 33.84s4.57 12.58 10.09 18.21c56.92-10.78 129.35-12.14 129.35-12.14 11.24-1.25 20.22-10.88 19.48-22.17-.17-2.52-.79-4.79-1.7-6.82-4.29-9.51-15.38-13.94-25.36-10.92z" class="color132368 svgShape"></path><path fill="#ffffff" d="M1755.49 718.33l-50.11 114.88-59.02 4.38c-.58.03-1.15.05-1.68.07-3.21.05-6.34-.46-9.26-1.44l49.19-112.64 70.88-5.25zM1799.78 717.23l-49.17 112.63-35.47 2.63 50.11-114.89 23.59-1.74c3.83-.28 7.52.23 10.94 1.37z" opacity=".2" class="colorfff svgShape"></path><linearGradient id="n" x1="760.799" x2="1486.582" y1="2302.095" y2="2302.095" gradientUnits="userSpaceOnUse"><stop offset="0" stop-color="#871d5c" class="stopColor871d5c svgShape"></stop><stop offset="1" stop-color="#601843" class="stopColor601843 svgShape"></stop></linearGradient><path fill="url(#n)" d="M1486.58 2556.22s-392.18-588.27-610.28-590.27-164.08 500.23 483.26 672.31l127.02-82.04z"></path><path fill="#f4f2f3" d="M792.01 2067.34c-19.95-20.49 17.36-67.01 47.18-76.28 29.81-9.27 111.08-10.04 108.94 31.69-2.14 41.74-55.6 6.88-98.38 7.52-23.3.35-31.36 64.16-57.74 37.07z" enable-background="new" opacity=".2" class="colorf4f2f3 svgShape"></path><path fill="#f4f2f3" d="M974.77 2074.85c-22.41-25.1-31.37-69.93 11.41-44.59s10.69 69.34-11.41 44.59z" enable-background="new" opacity=".2" class="colorf4f2f3 svgShape"></path><path fill="#601843" d="M1200.12 2190.45c.61 1.03 1.23 2.06 1.86 3.08 13.74 22.12 29.7 42.86 44.14 64.53 15.82 23.73 32 48.64 41.1 75.88 5.9 17.68 9.2 43.21-12.17 51.87-12.03 4.88-26.25 2.65-38.65.65-15.18-2.44-30.31-6.03-45.74-6.48-7.34-.22-14.84.32-21.85 2.66-7.79 2.6-13.56 7.34-18.62 13.73-10.73 13.55-16.54 30.39-28.02 43.38-29.05 32.86-76.14 15.56-108.94-1.17-36.74-18.75-71.96-40.08-104.25-65.82-32.14-25.61-61.34-54.75-87.83-86.14-1.45-1.72-2.89-3.45-4.32-5.18 80.28 135.11 251.42 279.4 542.71 356.83l127.02-82.04c.02-.01-132.57-198.9-286.44-365.78z" opacity=".8" class="color601843 svgShape"></path><path fill="#130031" d="M1273.34 2273.78s177.71 225.45 199.46 266.85c-.01 0-146.93-166.62-199.46-266.85z" opacity=".5" class="color130031 svgShape"></path><path fill="#21032b" d="M1406.31 2443.01c-30.92 18.18-65.68 29.14-100.81 35.9-41.41 7.97-83.7 10.44-125.79 11.34-20.51.44-41.02.45-61.53.45-19.65 0-39.35.62-58.99.19-13.97-.3-27.81-1.53-41.51-3.47 88.03 60.2 200.87 113.36 341.89 150.84l127.02-82.04c-.01 0-30.95-46.42-80.28-113.21z" opacity=".35" class="color21032b svgShape"></path><path fill="#21032b" d="M1253.89 2736.47c-11.42.36-19.71.03-19.71.03s-79.86-23.17-18.86-76.77l.03-.01c4.07-3.56 8.8-7.33 14.2-11.17 23.23-16.56 40.74-27.14 54.19-22.51 16.14 5.56 43.71 68.92 35.41 91.12-5.57 14.96-41.94 18.55-65.26 19.31z" class="color21032b svgShape"></path><path fill="#21032b" d="M1168.62 2644.81s-20.08 3.74-23.17 10.94c-12.46 29.08 17.91 113.45 42.16 123.99 12.06 5.25 31.93-14.58 31.93-14.58l-50.92-120.35z" class="color21032b svgShape"></path><path fill="#ffafaa" d="m1256.08 2657.13 74.97-39.52s30.48 27.57 30.64 73.94l-87.33 14.82c.01-.01-28.75-31.48-18.28-49.24z" class="colorffafaa svgShape"></path><path fill="#bfb232" d="M1223.5 2668.99s36.73-33.92 53.16-19.74c16.43 14.17 24.51 45.33 21.59 58.15-2.92 12.82-56.95 12.61-56.95 12.61s-21.76-34.29-17.8-51.02z" class="colorbfb232 svgShape"></path><path fill="#d1c63d" d="M1158.26 2652.68c-9.85 29.22 15.09 107.85 39.77 116.74 24.68 8.89 86.7-34.94 44.83-99.31-17.25-26.54-77.7-37.89-84.6-17.43z" class="colord1c63d svgShape"></path><path fill="#bfb232" d="M1238.26 2664.36c-.2.03-.41.05-.61.09-3.58.69-6.94 2.79-9.66 5.15-3.61 3.14-5.28 7.54-5.46 12.25-.2 5.25 1.08 10.49 2.43 15.52 1.47 5.47 3.2 10.88 4.37 16.42 1.04 4.94 1.7 10.17.56 15.15-1.1 4.76-4.01 8.97-8.19 11.52-4.41 2.68-9.76 3.37-14.84 3.23-5.71-.16-11.38-1.35-16.85-2.95-4.93-1.44-9.75-3.25-14.44-5.34-1.64-.73-3.27-1.47-4.9-2.22 7.69 18.11 17.55 32.69 27.37 36.22 24.68 8.89 86.7-34.94 44.83-99.31-1.3-1.99-2.85-3.9-4.61-5.73z" opacity=".25" class="colorbfb232 svgShape"></path><path fill="#21032b" d="M1555.42 2644.28c10.88 9.71 18.29 17.12 18.29 17.12s54.69 83.93-46.48 64.39l-.04-.02c-6.74-1.31-14.25-3.07-22.46-5.37-35.32-9.85-60.36-18.47-68.96-33.06-10.33-17.51 16.92-81.09 43.1-87.75 17.61-4.5 54.3 24.88 76.55 44.69z" class="color21032b svgShape"></path><path fill="#21032b" d="M1557.42 2775.41s16.29 12.33 23.69 9.76c29.89-10.37 71.79-89.65 63.26-114.67-4.25-12.45-32.28-13.78-32.28-13.78l-54.67 118.69z" class="color21032b svgShape"></path><path fill="#ffafaa" d="m1474.98 2683.07-79.71-28.8s-.15-41.1 34.01-72.45l69.77 54.57c.01 0-3.88 42.46-24.07 46.68z" class="colorffafaa svgShape"></path><path fill="#bfb232" d="M1536.2 2717.46s-71.52-15.51-77.04-39.74c-5.51-24.23 13.61-50.39 28.44-55.13 14.83-4.74 74.81 47.6 74.81 47.6s-6.7 41.23-26.21 47.27z" class="colorbfb232 svgShape"></path><path fill="#d1c63d" d="M1570.21 2777.76c28.23-12.4 69.55-83.8 59.5-108.02-10.05-24.23-84.22-40.55-103.6 33.75-7.99 30.62 24.33 82.95 44.1 74.27z" class="colord1c63d svgShape"></path><path fill="#bfb232" d="M1629.71 2669.73c-10.05-24.23-84.22-40.55-103.6 33.75-.84 3.23-1.23 6.7-1.24 10.32 2.27-.19 4.54-.43 6.8-.7 6.52-.77 13-1.83 19.51-2.61 2.55-.3 5.11-.57 7.68-.63 4.05-.1 8.06.66 11.62 2.63 7.34 4.04 11.15 12.32 11.59 20.44.24 4.47-.44 8.98-1.97 13.19-1.61 4.43-4.33 8.32-7.61 11.68-5.99 6.13-13.67 10.67-21.67 13.86 6.65 5.92 13.57 8.66 19.39 6.1 28.23-12.4 69.55-83.8 59.5-108.03z" opacity=".25" class="colorbfb232 svgShape"></path><linearGradient id="o" x1="1292.492" x2="2231.003" y1="2431.602" y2="2431.602" gradientUnits="userSpaceOnUse"><stop offset="0" stop-color="#871d5c" class="stopColor871d5c svgShape"></stop><stop offset="1" stop-color="#601843" class="stopColor601843 svgShape"></stop></linearGradient><path fill="url(#o)" d="m1292.49 2608.24 38.02 104.05s887.19 37.1 900.42-458.21c9.78-366.17-938.44 354.16-938.44 354.16z"></path><path fill="#f4f2f3" d="M1524.86 2472.25c-17.34 26.24 332.89-185.35 307.23-185.35s-283.68 149.7-307.23 185.35zM2068.76 2183.97c-21.95 17.12 136.2 22.81 119.07-3.56-17.13-26.38-83.42-24.24-119.07 3.56z" enable-background="new" opacity=".2" class="colorf4f2f3 svgShape"></path><path fill="#601843" d="M2211.3 2295.61c-48.19-6.71-97.72 1.24-143.23 17.62-21.83 7.86-42.94 17.74-62.99 29.41-18.29 10.65-37.47 22.54-52.13 38-23.43 24.72-33.32 57.8-44.44 89.14-9.18 25.86-20.52 53.98-46.28 67.34-16.14 8.37-35.55 9.95-53.44 9.39-24.2-.75-47.91-6.54-71.3-12.32-24.09-5.95-48.44-12.38-73.37-13.37-21.5-.86-44.62 2.25-60.07 18.68-11.69 12.43-17.11 29.25-24.59 44.25-8.46 16.96-20.17 31.19-34.9 43.12-32.38 26.24-75.18 40.81-116.63 42.44-19.66.77-39.76-1.6-58.27-8.51-19.19-7.16-36.4-18.84-52.03-31.91-8.25-6.9-16.09-14.21-23.67-21.77-.97.73-1.46 1.11-1.46 1.11l38.02 104.05s833.27 34.85 896.74-413.86a238.8 238.8 0 0 0-15.96-2.81z" opacity=".8" class="color601843 svgShape"></path><path fill="#ffafaa" d="m2058.21 1056.88-68.63 33.83s-83.27 838.41 187.73 778.91c198.41-43.55-86.44-657.07-119.1-812.74z" class="colorffafaa svgShape"></path><path fill="#dd8a8a" d="M2185.97 1549.98c-9.44 13.53-18.78 27.14-28.6 40.4-9.89 13.35-20.23 26.43-31.77 38.41-9.88 10.25-20.84 20.08-33.63 26.57-10.41 5.28-21.6 7.51-33.08 4.88-9.61-2.21-18.02-7.58-24.3-15.16-6.8-8.2-11.03-18.27-13.95-28.43-3.5-12.21-5.19-24.91-6.09-37.56-1.94-27.09-.31-54.34 1.81-81.37.89-11.38 1.94-22.75 2.72-34.14.82-11.93.77-23.83.57-35.79-.6-36.67-3.11-74.13-14.68-109.18-5.56-16.85-13.32-33.03-23.85-47.36-.71-.96-1.43-1.91-2.16-2.85-7.54 242.57 8.17 642.98 198.35 601.23 96.53-21.19 78.66-177.3 31.11-349.95-8.12 9.58-15.27 20.01-22.45 30.3z" opacity=".35" class="colordd8a8a svgShape"></path><path fill="#dd8a8a" d="M2198.38 1563.69c-2.94 9.14-3.8 18.68-3.82 28.25-.03 10.46.88 20.9 1.94 31.29 2.14 20.98 5.41 42.14 4.41 63.29-.42 8.81-1.64 17.77-4.92 26.02-3.4 8.53-9.2 15.46-16.72 20.72-7.83 5.47-17 8.21-26.53 8.05-9.24-.16-18.27-2.74-26.92-5.8-8.37-2.96-16.53-6.56-25.06-9.03-6.81-1.97-14.57-3.4-21.32-.41-7.05 3.12-12.06 9.56-16.08 15.9-5.07 8-9.03 16.67-13.06 25.22-3.2 6.81-6.39 13.64-10 20.25 30.2 61.35 74.04 96.01 137.01 82.18 93.45-20.51 79.69-167.48 35.57-333.49-7.22 7.5-11.38 17.82-14.5 27.56z" opacity=".25" class="colordd8a8a svgShape"></path><path fill="#ffafaa" d="M2067.33 1013.31c.24 8.01-.45 15.74-1.62 22.85-3.61 21.91-12.01 37.93-12.01 37.93l45.69 159.82c-28.7 14.58-72.79 19.13-80.38 19.49 0 0-28.74-150.63-51.75-167.68-.16-.19-.43-.35-.63-.47-6.43-1.68-14.32-9.09-21.38-18.75-4.86-6.67-9.35-14.39-12.79-22.03-8.39-18.66-63.59-28.47-60.47-40.71 3.17-12.25 36.73-15.22 50.04-4.63 13.3 10.53 22.6-1.5 18.79-17.23-5.89-24.27-57.65-130.83-41.63-137.44 16.02-6.61 66.91 99.13 66.91 99.13s-37.56-129.56-18.71-127.82c18.79 1.76 50.21 121.71 50.21 121.71s-19.57-96.4-3.79-104.03c15.76-7.69 40.94 102.7 40.94 102.7s-4.68-70.16 10-75.99c14.67-5.83 21.52 120.43 22.58 153.15z" class="colorffafaa svgShape"></path><path fill="#dd8a8a" d="M1990.08 1094.31c10.92 3.97 23.06 2.08 33.63-2.14 10.48-4.18 20.44-11.13 26.53-20.78 1.81-2.86 3.04-5.88 4.01-9-1.03 1.52-2.1 2.99-3.25 4.28-14 15.9-36.52 9.54-36.52 9.54-3.27 3.71-21.8 9.17-38.28 9.74 4.37 3.18 8.72 6.48 13.88 8.36z" opacity=".25" class="colordd8a8a svgShape"></path><path fill="#ffffff" d="M2067.33 1013.31c.24 8.01-.45 15.74-1.62 22.85-3.12 10.59-7.93 22.85-14.72 30.52-14 15.9-36.52 9.54-36.52 9.54-3.88 4.41-29.27 11.3-47.21 9.52-.16-.19-.43-.35-.63-.47-6.43-1.68-14.32-9.09-21.38-18.75-4.86-6.67-9.35-14.39-12.79-22.03-8.39-18.66-63.59-28.47-60.47-40.71 3.17-12.25 36.73-15.22 50.04-4.63 13.3 10.53 22.6-1.5 18.79-17.23-5.89-24.27-57.65-130.83-41.63-137.44 16.02-6.61 66.91 99.13 66.91 99.13s-37.56-129.56-18.71-127.82c18.79 1.76 50.21 121.71 50.21 121.71s-19.57-96.4-3.79-104.03c15.76-7.69 40.94 102.7 40.94 102.7s-4.68-70.16 10-75.99c14.67-5.85 21.52 120.41 22.58 153.13z" opacity=".2" class="colorfff svgShape"></path><path fill="#fc7981" d="M2043.65 939.88c-7.16-.86-14.3-1.58-21.44-1.91-7.12-.3-14.3-.41-21.23.76-7.02 1.05-14.01 2.74-20.9 4.56-6.9 1.88-13.73 4.04-20.32 6.94 6.09-3.91 12.87-6.63 19.72-8.94 6.88-2.32 13.92-3.95 21.08-5.27 7.29-1.06 14.61-.89 21.82-.19 7.19.79 14.33 2.05 21.27 4.05z" opacity=".25" class="colorfc7981 svgShape"></path><path fill="#ffafaa" d="M966.34 1965.94c62.33 144.12 587.75-136.85 587.75-136.85l-13.49-80.91c.01 0-675.64-16.66-574.26 217.76z" class="colorffafaa svgShape"></path><path fill="#dd8a8a" d="M1038.66 1816.05s76.1-29.68 146.3-41.16c0 0-92.12 0-146.3 41.16z" class="colordd8a8a svgShape"></path><path fill="#f4f2f3" d="M1175.96 1800.86c-7.53-10.94 185.99-56.89 204.16-25.48 18.19 31.4-189.32 47.04-204.16 25.48zM1393.86 1763.14c13.57-19 40.55 17.44 23.48 17.27s-28.82-9.79-23.48-17.27z" enable-background="new" opacity=".2" class="colorf4f2f3 svgShape"></path><path fill="#dd8a8a" d="M1384.95 1898.44c-10.71 2.48-20.56 7.39-30.15 12.62-5.28 2.88-10.51 5.84-15.81 8.67-5.4 2.88-10.78 5.77-16.68 7.51-11.08 3.27-23.66 3.44-34.38-1.23-5.09-2.22-9.56-5.43-12.68-10.07-2.94-4.36-4.66-9.36-6.88-14.09-2.52-5.39-5.84-10.29-11.05-13.38-4.34-2.57-9.15-4.31-14.1-5.23-9.95-1.83-20.21-.49-29.95 1.9-10.83 2.66-21.28 6.69-31.61 10.85-10.04 4.04-19.99 8.33-30.24 11.81-8.75 2.98-17.86 5.51-27.18 5.34-20.11-.38-39.66-9.18-51.21-26.02-11.66-17-13.31-39.12-7.86-58.65 2.51-8.99 7.08-17.21 13.49-24.01 1.19-1.26 2.45-2.45 3.73-3.61-92.17 32.03-151.44 83.26-116.06 165.08 41.48 95.92 288.09 3.55 448.41-68.97-9.93-1.05-20.02-.79-29.79 1.48z" opacity=".25" class="colordd8a8a svgShape"></path><path fill="#dd8a8a" d="M1167.69 1966.4c-25.05 1.92-50.21 2.66-75.32 1.77-12.43-.45-24.85-1.3-37.21-2.65-10.38-1.14-20.76-2.42-30.82-5.31-25.22-7.24-50.67-22.73-68.22-43.77-.69 15.12 2.47 31.57 10.23 49.51 32.23 74.52 188.28 35.38 331.48-19.8-42.86 9.7-86.34 16.89-130.14 20.25z" opacity=".25" class="colordd8a8a svgShape"></path><path fill="#182b9b" d="M1741.15 1673.88c-21.48 18.38-116.7 67.46-144.15 74.29 0 0-10.69-13.39-6.78-16.8 3.66-3.24 136.59-71.69 141.18-72.76 5.05-1.2 9.75 15.27 9.75 15.27z" class="color182b9b svgShape"></path><path fill="#132368" d="M1855.56 1749.22c-7.8 38.65-98.77-10.81-98.77-10.81l-116.31 59.94s-12.5 102.79-48.51 86.71c-35.98-16.09-18.48-118.94-18.48-118.94 13.09-33.67 83.39-56.57 93.24-59.66 8.29-6.29 67.68-50.17 102.67-41.31.01 0 93.93 45.43 86.16 84.07z" class="color132368 svgShape"></path><path fill="#182b9b" d="m1745.71 1744.12-94.16 48.53s-6.97-25.66 35.18-47.38c42.12-21.72 58.98-1.15 58.98-1.15z" class="color182b9b svgShape"></path><path fill="#ffafaa" d="M1479.25 1748.18c16.13.52 27.35.79 61.36 0 23.07-16.41 38.47-41.79 53.61-43.3 15.14-1.52 33.97-10.75 42.49-6.59 8.52 4.15 14.17 17.07 29.65 21.12 15.48 4.05 8.85 11.63-1.16 15.9s-32.26-2.64-34.86-4.75l-15.64 2.45s44.3 15.49 54.43 19.61c10.13 4.12 26.51 30.16 25.03 37.17-1.49 7.01-12.82 5.66-12.82 5.66s6.2 11.68 2.74 19.99c-3.46 8.31-12.63 7.68-12.63 7.68s-2.27 11.72-6.28 16.96-16.06 3.55-16.06 3.55-4.02 16.71-12.34 13.68c-15.12-5.5-23.68-43.28-67.42-32.04-45.8 11.77-66.76 14.62-66.76 14.62l-23.34-91.71z" class="colorffafaa svgShape"></path><linearGradient id="p" x1="1479.245" x2="1694.246" y1="1722.565" y2="1722.565" gradientUnits="userSpaceOnUse"><stop offset="0" stop-color="#ffffff" class="stopColorfff svgShape"></stop><stop offset="1" stop-color="#000000" class="stopColor000000 svgShape"></stop></linearGradient><path fill="url(#p)" d="M1552.72 1747.71c4.19.58 8.58-.14 12.51-1.64 3.8-1.45 7.19-3.74 10.18-6.49 6.15-5.66 10.56-12.88 15.64-19.44 1.33-1.72 2.72-3.41 4.18-5.03 1.28-1.41 2.64-2.8 4.22-3.87 2.92-1.98 6.31-2.42 9.76-2.6 1.24-.06 2.46-.09 3.69-.29 1.19-.19 2.37-.47 3.52-.82 2.5-.76 4.89-1.85 7.18-3.09 3.69-2 7.12-4.43 10.43-7-9.36-1.65-26.1 6.05-39.83 7.43-14.17 1.42-28.56 23.72-49.25 40.03 2.35 1.44 4.97 2.42 7.77 2.81z" opacity=".5"></path><path fill="#dd8a8a" d="M1678.89 1794.98c-5.3 3.92-11.7 6.33-18.35 5.56-4.34-.5-8.71-1.12-13.09-.88-2.26.13-4.55.48-6.68 1.29-1.93.74-3.58 1.88-5.13 3.24-2.88 2.54-5.45 5.56-9.1 7.04-3.94 1.6-8.55 1.86-12.68.95-7.72-1.7-14.15-7.14-22-8.41-6.17-1-12.3 1.02-17.66 3.97-6.35 3.5-11.94 8.3-17.16 13.28-3.25 3.1-6.37 6.34-9.45 9.61 6.51-1.54 13.74-3.32 21.75-5.38 43.75-11.24 52.31 26.54 67.42 32.04 8.32 3.03 12.34-13.68 12.34-13.68s12.04 1.69 16.06-3.55c4.01-5.24 6.28-16.96 6.28-16.96s9.17.63 12.63-7.68c3.45-8.31-2.74-19.99-2.74-19.99s11.33 1.34 12.82-5.66c.41-1.95-.55-5.36-2.38-9.36-3.4 5.54-7.64 10.7-12.88 14.57z" opacity=".25" class="colordd8a8a svgShape"></path><path fill="#fc7981" d="M1680.63 1797.48c-.44-.15-.83-.44-1.11-.86-3.87-5.89-14.76-21.85-18.69-24.89-3.48-2.69-24.61-9.12-37.96-12.79-1.13-.34-1.82-1.5-1.51-2.65.32-1.15 1.5-1.82 2.65-1.51 3.48.96 34.19 9.46 39.46 13.54 5.22 4.03 18.19 23.71 19.66 25.94.65 1 .38 2.33-.62 2.99-.58.37-1.27.43-1.88.23zM1670.75 1825.15c-.44-.15-.83-.44-1.1-.85-6.16-9.29-19.02-27.92-23.64-31.89-4.64-3.98-23.86-8.82-30.88-10.35-1.19-.26-1.9-1.4-1.65-2.57.25-1.16 1.4-1.9 2.57-1.65 2.69.59 26.46 5.88 32.77 11.29 6.23 5.34 23.69 31.66 24.43 32.78.66.99.39 2.33-.61 2.99-.58.39-1.28.46-1.89.25zM1648.41 1845.66c-.39-.13-.75-.38-1.02-.73-.13-.16-12.69-16.6-19.67-22.93-5.46-4.94-25.45-7.35-32.69-7.86a2.158 2.158 0 0 1-2-2.3 2.152 2.152 0 0 1 2.3-2c2.82.2 27.75 2.14 35.29 8.97 7.27 6.59 19.67 22.82 20.2 23.5.72.94.54 2.3-.41 3.02-.59.46-1.34.55-2 .33z" opacity=".25" class="colorfc7981 svgShape"></path><g opacity=".9" fill="#000000" class="color000 svgShape"><linearGradient id="q" x1="2324.796" x2="2002.578" y1="437.687" y2="1313.093" gradientUnits="userSpaceOnUse"><stop offset=".02" stop-color="#d1e1ee" class="stopColord1e1ee svgShape"></stop><stop offset=".363" stop-color="#50a7e2" class="stopColor50a7e2 svgShape"></stop><stop offset="1" stop-color="#182b9b" class="stopColor182b9b svgShape"></stop></linearGradient><path fill="url(#q)" d="m2423.26 1021.98-538.65 43.17-14.82-243.07 539.9-22.59z"></path><path fill="#130031" d="M2283.02 899.35c-31.55 36.16-69.14 67.66-109.98 92.84-21.47 13.24-44.21 24.68-67.12 35.21-19.82 9.1-40.04 17.35-60.51 24.87l377.84-30.29-13.57-222.49-68.95 2.88c-10.74 36.16-33.28 68.97-57.71 96.98z" opacity=".1" class="color130031 svgShape"></path><path fill="#ffffff" d="m1993.12 950.08-11.67.74 2.1 34.39-18.91 1.3-5.86-96.08 30.6-1.63c18.85-1 29.04 11.65 30.1 29.14.96 15.72-6.76 30.9-26.36 32.14zm-2.56-18.44c7.47-.45 10.36-5.27 9.91-12.61-.45-7.34-3.91-11.79-11.38-11.37l-10.24.58 1.46 24.02 10.25-.62zM2045.81 885.78l4.69 76.93 24.07-1.58 1.08 17.75-42.56 2.92-5.79-95.03 18.51-.99zM2129.69 958.58l-27.67 1.82-3.45 16.9-19.07 1.31 21.3-95.76 20.92-1.12 32.32 91.76-18.94 1.3-5.41-16.21zm-16.97-51.04-7 34.89 18.27-1.15-11.27-33.74zM2150.67 880.19l20.17-1.08 16.43 38.04 11.53-39.53 19.65-1.05-21.12 63.25 1.86 30.57-17.63 1.21-1.87-30.66-29.02-60.75z" class="colorfff svgShape"></path><path fill="#e4f2f4" d="M2386.95 906.16c3.02 49.47-24.97 91.86-62.96 94.72-38.48 2.9-72.54-35.78-75.63-86.42-3.09-50.64 26.03-93.1 64.58-94.81 38.05-1.7 70.99 37.04 74.01 86.51z" class="colore4f2f4 svgShape"></path><path fill="#d1c63d" d="m2368.57 907.26-83.33-55.87 7.4 121.28z" class="colord1c63d svgShape"></path></g><path fill="#d1e1ee" d="M465.71 1547.32c0 .09.01.24.06.38l4.85 161.72c-1.46-48.7 77.26-95.33 206.7-131.89l-4.87-162.1c-129.47 36.56-208.2 83.19-206.74 131.89z" class="colord1e1ee svgShape"></path><path fill="#00c7e7" d="M620.95 1484.49c-84.34 28.65-139.34 62.12-153.46 97.27.27 7.27.5 14.54.68 21.81 15.72-35.49 72.92-69.21 159.89-97.9 4.71-1.55 7.88-6 7.73-10.96-.25-7.51-7.72-12.64-14.84-10.22z" opacity=".4" class="color00c7e7 svgShape"></path><path fill="#00c7e7" d="M620.96 1528.22c-82.32 27.97-136.57 60.53-152.26 94.76.04 7.66.03 15.32.02 22.98 16.55-34.99 73.47-68.22 159.33-96.55 4.71-1.55 7.89-6 7.74-10.95v-.01c-.25-7.52-7.72-12.65-14.83-10.23z" opacity=".4" class="color00c7e7 svgShape"></path><g opacity=".9" fill="#000000" class="color000 svgShape"><linearGradient id="r" x1="1219.354" x2="680.423" y1="795.388" y2="1858.992" gradientUnits="userSpaceOnUse"><stop offset=".02" stop-color="#d1e1ee" class="stopColord1e1ee svgShape"></stop><stop offset=".363" stop-color="#50a7e2" class="stopColor50a7e2 svgShape"></stop><stop offset="1" stop-color="#182b9b" class="stopColor182b9b svgShape"></stop></linearGradient><path fill="url(#r)" d="m1228.29 1583.81-632.77 117.14V1220.5l632.77-38.73z"></path><path fill="#132368" d="M1163.4 1185.74c-18.1 69.67-53.83 133.56-102.35 186.92-54.61 60.06-123.25 106.23-196.51 140.49-41.09 19.22-83.87 34.37-127.29 47.39-46.53 13.96-93.88 25.24-141.73 33.65v106.76l632.77-117.14v-402.05l-64.89 3.98z" opacity=".2" class="color132368 svgShape"></path><path fill="#d1e1ee" d="m662.91 1646.58 502.9-87.57c5.62-.98 10.16-7.1 10.16-13.68s-4.54-11.15-10.16-10.22l-502.9 83.93c-7.48 1.25-13.57 8.45-13.57 16.08s6.08 12.76 13.57 11.46z" class="colord1e1ee svgShape"></path><path fill="#d1c63d" d="M667.24 1632.07c0-11.39 9.04-22.12 20.14-23.95 11.03-1.82 19.92 5.85 19.92 17.12 0 11.27-8.89 21.97-19.92 23.91-11.1 1.95-20.14-5.69-20.14-17.08z" class="colord1c63d svgShape"></path><path fill="#e4f2f4" d="m1196.18 1220.15 7.7-9.68c1.54-1.93 1.54-4.89 0-6.62-1.54-1.72-4.04-1.56-5.59.38l-7.73 9.68-7.77-8.63c-1.56-1.73-4.1-1.56-5.66.38-1.57 1.95-1.57 4.94 0 6.67l7.79 8.63-7.79 9.76c-1.57 1.96-1.57 4.95 0 6.67 1.57 1.72 4.1 1.52 5.66-.44l7.77-9.75 7.73 8.56c1.54 1.71 4.05 1.52 5.59-.43 1.54-1.94 1.54-4.91 0-6.62l-7.7-8.56z" class="colore4f2f4 svgShape"></path><path fill="#132368" d="M1015.77 1386.23c-.03-.46-.08-.9-.11-1.36-.09-1.32-.19-2.63-.33-3.92-.05-.45-.12-.89-.18-1.34-.16-1.3-.33-2.59-.55-3.86-.06-.38-.14-.76-.21-1.14-.24-1.34-.5-2.67-.79-3.98l-.21-.87c-.33-1.4-.69-2.78-1.08-4.15l-.18-.59c-.43-1.45-.89-2.89-1.38-4.3-.04-.11-.08-.22-.12-.34a83.76 83.76 0 0 0-1.71-4.41.694.694 0 0 1-.05-.13c-7.93-18.86-22.11-33.63-40.15-42.26-.23-.25-.68-.51-1.48-.83-.46-.18-1.37-.54-2.6-.99-9.42-3.91-19.77-6.19-30.76-6.6-.53-.02-1.06-.03-1.59-.04-1.03-.02-2.06-.03-3.09-.02-.9.01-1.8.03-2.71.06a92.583 92.583 0 0 0-5.65.37c-.34.03-.69.07-1.03.11-1.51.16-3.03.34-4.56.57-17.34 2.61-33.66 9.45-47.88 19.32-4.27 2.96-8.35 6.2-12.21 9.67-2.58 2.32-5.06 4.74-7.43 7.26a124.606 124.606 0 0 0-9.96 11.96c-6.13 8.37-11.21 17.47-15.01 27.06-3.8 9.59-6.32 19.66-7.33 29.94-.34 3.43-.51 6.88-.5 10.35 0 1.76.05 3.5.15 5.22.01.19.03.37.04.55.09 1.54.21 3.08.37 4.59.01.05.01.1.02.15 3.08 28.44 18.42 51.39 40.7 64.36 0 0 .01 0 .01.01 2 1.16 4.06 2.24 6.17 3.24.1.05.19.09.28.14.86.41 1.74.79 2.62 1.16.37.16.74.32 1.12.47.83.34 1.67.67 2.52.99.43.16.87.32 1.3.47.84.3 1.68.6 2.53.87.4.13.82.24 1.22.37 1.51.46 3.04.88 4.59 1.26.6.15 1.19.3 1.79.44.73.16 1.46.31 2.2.45.69.14 1.38.27 2.07.39.7.12 1.41.24 2.12.34.78.12 1.57.22 2.36.32.65.08 1.29.16 1.94.23 1.15.12 2.31.21 3.48.28l1.55.09c1.23.06 2.47.1 3.72.11.54 0 1.08-.01 1.63-.01 1.01-.01 2.02-.03 3.04-.07.57-.02 1.14-.05 1.71-.08 1.06-.06 2.12-.14 3.19-.24.5-.04 1.01-.08 1.51-.14 1.56-.16 3.12-.35 4.7-.59h.02c10.41-1.56 20.44-4.65 29.87-9.01 3.14-1.45 6.22-3.04 9.23-4.77 4.5-2.58 8.84-5.46 12.98-8.6 2.76-2.09 5.43-4.3 8.01-6.62 5.15-4.63 9.92-9.69 14.24-15.1 16.19-20.28 26.03-45.46 25.99-71.47.01-1.79-.05-3.57-.15-5.34z" class="color132368 svgShape"></path><path fill="#182b9b" d="M1025.48 1387.44c.1 55.48-44.81 107.23-100.31 115.56-55.5 8.34-100.57-29.88-100.67-85.37-.1-55.49 44.81-107.22 100.32-115.56 55.49-8.33 100.56 29.89 100.66 85.37z" class="color182b9b svgShape"></path><path fill="#4a4b4c" d="M876.12 1410.84c16.46-10.75 32.62-23.34 45.43-38.65 12.38-14.8 20.68-32.79 24.6-50.79 1.45-6.65 2.31-13.39 2.51-20.04-7.65-.71-15.63-.52-23.84.71-55.5 8.34-100.42 60.08-100.32 115.56.01 7.06.76 13.84 2.16 20.29 16.93-7.89 33.59-16.72 49.46-27.08z" class="color4a4b4c svgShape"></path><path fill="#ffffff" d="M841.32 1406.25s-5.76 12.37-8.47 27.86c-1.43 7.83-1.04 10.73 4.85 18.23 11.27 14.35 15.45 18.1 19.31 16.88 3.85-1.23 21.99-7.85 27.29-9.94 4.01-1.58 4.01-2.55 5.6-9.76 1.6-7.21 4.15-17.32 4.78-22.77.63-5.44-.17-5.16-4.84-10.3-4.67-5.13-15.77-18.38-18.03-20.79-2.26-2.42-3.38-1.44-8.68.17-5.3 1.61-13.33 4.92-17.18 6.47-3.83 1.56-3.83 2.53-4.63 3.95zM849.05 1350.57s-4.92 7.33-9.38 15.74c-2.47 4.87-1.71 11.27-.21 23.55 1.51 12.28 2.75 12.09 7.45 10.39 4.71-1.71 17.84-6.43 21.31-7.7 3.47-1.27 6.19-7.69 9.4-13.42 3.21-5.74 16.05-24.24 18.64-27.25 2.45-2.55 1.73-4.63.99-10.34-.74-5.72-2.49-17.54-4.07-17.73-1.59-.2-13.85 1.63-18.47 2.03-4.62.4-16.3 11.57-25.66 24.73zM896.22 1427.05s-4.83 20.21-6.44 27.97c-.8 4.54-.96 5.55 8.13 10.24 9.09 4.68 13.64 7.6 16.56 8.8 2.92 1.2 5.51.81 13.95-2.42 8.43-3.23 16.78-6.25 20.26-8.28 3.4-1.98 8.73-14.57 11.15-22.78 2.42-8.22 4.35-14.9.94-17.17-3.41-2.27-7.47-5.92-12.99-8.85-5.52-2.94-10.23-7.14-12.33-5.84-2.11 1.3-23.88 10-32.3 13.51-4.02 1.72-6.64 3.09-6.93 4.82zM913.27 1501.66s3.97-17.23 4.6-21.36c.63-4.13 2.07-4.51 7.83-6.35 5.76-1.83 21.11-8.66 23.83-10.04 2.72-1.38 4.34-2.12 8.99.73 4.65 2.86 15.03 9.06 18.56 10.96 2.56 1.39-9.3 11.74-24.77 18.26-17.92 7.53-39.2 10.57-39.04 7.8zM899.44 1347.02s-2.14-11.72-2.92-18.21c-.78-6.49-.01-5.83 8.65-10.82s29.24-12.75 33.67-13.8c4.42-1.05 9.63-.47 20.8 3.48 11.17 3.96 14.07 5.46 14.65 8.68.58 3.22 1.96 18.16 2.16 25.13-.18 4.88-1.85 4.56-10.08 9.18-8.44 4.73-16.49 9.31-18.47 10.75-2.68 1.54-7.19-.47-14.61-4.18-6.59-3.29-20.12-7.12-25.91-7.96-5.77-.85-7.27.48-7.94-2.25zM946.2 1367.08s-4.13 19.42-6.09 29.31c-1.97 9.5-1.37 10.8 4.19 14.17 5.55 3.36 11.91 8.41 15.28 10.5 3.38 2.09 5.56 4.78 16.25.16 13.46-5.82 17.03-7.36 21.19-9.38 4.16-2.03 4.95-3.74 6.52-11.58 1.57-7.83 2.74-19.41 3.52-25.73.78-6.31-.41-7.13-5.37-11.39-4.96-4.25-14.29-10.85-17.86-13.91-3.57-3.06-6.15-3.08-10.5-.82-4.35 2.25-16.23 8.44-20.59 11.49-4.37 3.06-5.95 3.5-6.54 7.18zM1018.46 1363.49s-6.47 3.1-8.45 4.34c-1.98 1.23-1.71 7.59-2.49 14.24-.78 6.65-3.13 19.54-4.71 25.37-.92 2.8 2.77 4.49 5.83 8.99 4.77 7.02 7.29 10.91 8.34 9.28 1.05-1.62 7.9-17.72 7.59-42.6-.81-11.08-2.81-21.98-6.11-19.62z" class="colorfff svgShape"></path><path fill="#ffffff" d="M829.92 1446.8s.94-2.88 1.77-1.58c.83 1.31 10.3 15.5 18 22.69 2.72 2.21 3.43 2.82 3.8 7.66.36 4.84-.23 6.11-3.07 3.68-2.85-2.43-16.57-17.66-20.5-32.45zM945.48 1301.28s-1.42-.26-2.01.42c-.59.69 2.72 1.14 8.51 2.78 5.79 1.63 14.78 4.81 18.56 6.87 2.6 1.16 3.66 1.36 5.91.06 2.24-1.29 2.95-1.75.35-2.79s-19.15-7.38-31.32-7.34z" class="colorfff svgShape"></path><path fill="#979797" d="M943 1467.81s-12.52 4.95-20.56 7.94c-5.28 1.46-4.62 10.25-6.93 20.4 0 0 3.18-11.81 4.78-16.12 1.61-4.3 8.14-4.09 22.71-12.22z" class="color979797 svgShape"></path><path fill="#ffffff" d="M854.04 1345.67s11.41-13.68 16.06-16.95c4.65-3.26 22.23-4.15 22.23-4.15S880 1326.8 874.2 1328c-5.81 1.2-20.16 17.67-20.16 17.67zM917.05 1313.56s17.71-7.77 23.23-8.83c5.52-1.06 16.58 1.92 28.78 7.06-13.59-4-23.72-6.42-27.86-5.8-4.14.61-24.15 7.57-24.15 7.57zM850.73 1402.03s15.84-6.38 18.22-6.34c2.38.04 21.05 22.83 21.05 22.83s-16.28-17.55-21.04-19.24c-4.76-1.68-18.23 2.75-18.23 2.75z" class="colorfff svgShape"></path><linearGradient id="s" x1="971.407" x2="1008.575" y1="1402.16" y2="1378.319" gradientTransform="matrix(1 -.1503 .0018 .9997 -2.083 138.154)" gradientUnits="userSpaceOnUse"><stop offset=".285" stop-color="#9e9e9e" class="stopColor9e9e9e svgShape"></stop><stop offset=".383" stop-color="#aaaaaa" class="stopColoraaa svgShape"></stop><stop offset=".559" stop-color="#cacaca" class="stopColorcacaca svgShape"></stop><stop offset=".694" stop-color="#e6e6e6" class="stopColore6e6e6 svgShape"></stop><stop offset=".737" stop-color="#ececec" class="stopColorececec svgShape"></stop><stop offset=".873" stop-color="#f9f9f9" class="stopColorf9f9f9 svgShape"></stop><stop offset="1" stop-color="#fdfdfd" class="stopColorfdfdfd svgShape"></stop></linearGradient><path fill="url(#s)" d="M989.97 1354.96s10.81 8.52 13.98 11.24c3.17 2.72 2.98 2.93.23 26.64 1.28-15.03 2.01-21.34-.79-24.68-2.79-3.34-13.42-13.2-13.42-13.2z"></path><path fill="#ffffff" d="M892.29 1436.81s-2.56 11.99-3.96 17.41-6.33 5.45-19 9.96c13.37-6.04 16.66-7.01 17.83-10.73 1.17-3.73 5.13-16.64 5.13-16.64zM892.49 1444.88s2.76-11.82 3.74-16.56c1.38-4.61 10.1-6.52 19.21-10.29 0 0-8.52 4.08-14.06 7.11-5.55 3.04-5.53 10.44-8.89 19.74zM897.79 1464.35s9.99 5.63 14.38 7.91c4.39 2.29 6.82 2.17 18.26-2.01 11.44-4.17 14.6-5.88 14.6-5.88s-16.07 5.85-24.34 7.34c-8.28 1.5-22.9-7.36-22.9-7.36zM940.63 1399.32s4.51-25.36 5.94-31.39c1.43-6.02 11.73-10.72 22.52-16.69 0 0-12.22 8.13-17.01 12-4.79 3.86-4.3 7.42-11.45 36.08zM950.64 1417.73s7.25 4.83 9.6 6.65c2.35 1.82 2.36 7.35-4.85 25.8 3.11-12.12 7.39-22.63 3.08-25.93-4.3-3.3-7.83-6.52-7.83-6.52zM838.95 1456.61s5.78 7.03 9.81 10.89c3.51 3.11 4.23 3.63 4.24 11.01-.53-4.7-1.16-6.94-3.43-8.98-2.26-2.05-10.62-12.92-10.62-12.92z" class="colorfff svgShape"></path><path fill="#132c7c" d="M1012.84 1350.18c-10.1 8.01-20.28 15.91-30.42 23.88-20.55 16.17-40.95 32.66-59.92 50.84-17.94 17.19-34.53 35.98-48.93 56.17-2.68 3.76-5.28 7.58-7.8 11.44 16.66 9.7 37.18 13.83 59.39 10.49 55.49-8.34 100.41-60.08 100.31-115.56-.03-14.81-3.28-28.38-9.06-40.17-1.19.97-2.36 1.95-3.57 2.91z" opacity=".2" class="color132c7c svgShape"></path></g><linearGradient id="t" x1="-72.612" x2="1270.438" y1="2248.983" y2="1346.487" gradientUnits="userSpaceOnUse"><stop offset=".02" stop-color="#d1e1ee" class="stopColord1e1ee svgShape"></stop><stop offset=".363" stop-color="#50a7e2" class="stopColor50a7e2 svgShape"></stop><stop offset="1" stop-color="#182b9b" class="stopColor182b9b svgShape"></stop></linearGradient><path fill="url(#t)" d="m465.48 1539.13 4.87 162.12c2.49 82.81 236.41 145.77 554.62 158.46l-4.87-162.16c-318.2-12.65-552.13-75.61-554.62-158.42z"></path><path fill="#132368" d="M1024.97 1859.7c-224.62-8.95-407.24-42.96-496.11-91.31 352.12 72.78 423.01-24.67 436.98-73.53 17.79 1.06 35.88 1.96 54.26 2.69l4.87 162.15z" opacity=".2" class="color132368 svgShape"></path><path fill="#d1e1ee" d="M2373.28 2116.18c0 .08-.01.19-.05.31l-3.94 131.2c1.19-39.51-62.68-77.34-167.68-106.99l3.95-131.5c105.04 29.64 168.9 67.47 167.72 106.98z" class="colord1e1ee svgShape"></path><path fill="#00c7e7" d="M2247.34 2065.21c68.42 23.24 113.04 50.4 124.5 78.91-.22 5.89-.41 11.79-.55 17.7-12.75-28.79-59.16-56.14-129.71-79.42-3.82-1.26-6.39-4.87-6.27-8.89.19-6.11 6.25-10.26 12.03-8.3z" opacity=".4" class="color00c7e7 svgShape"></path><path fill="#00c7e7" d="M2247.34 2100.68c66.78 22.69 110.8 49.11 123.52 76.87-.04 6.22-.03 12.43-.01 18.64-13.43-28.39-59.6-55.34-129.26-78.33-3.82-1.26-6.4-4.87-6.28-8.89v-.01c.19-6.08 6.25-10.24 12.03-8.28z" opacity=".4" class="color00c7e7 svgShape"></path><linearGradient id="u" x1="2654.399" x2="1593.648" y1="2550.846" y2="1900.707" gradientUnits="userSpaceOnUse"><stop offset=".02" stop-color="#d1e1ee" class="stopColord1e1ee svgShape"></stop><stop offset=".363" stop-color="#50a7e2" class="stopColor50a7e2 svgShape"></stop><stop offset="1" stop-color="#182b9b" class="stopColor182b9b svgShape"></stop></linearGradient><path fill="url(#u)" d="m2373.46 2109.53-3.95 131.52c-2.02 67.18-191.79 118.26-449.93 128.55l3.95-131.55c258.14-10.26 447.92-61.34 449.93-128.52z"></path><path fill="#132368" d="M2285.56 2264.44c-31.95 12.25-65.26 21.26-99.05 26.67-23.04 3.69-46.33 6.02-69.68 4.95-23.72-1.09-47.21-5.8-69.24-14.74-18.66-7.57-37.06-17.61-52.36-30.81-5.22-4.5-10.44-9.69-14.79-15.45-18.56 1.22-37.55 2.22-56.92 2.99l-3.95 131.55c258.15-10.29 447.92-61.37 449.93-128.55l.63-21.08c-25.88 18.66-54.83 33.06-84.57 44.47z" opacity=".2" class="color132368 svgShape"></path><path fill="#7a1752" d="m1323.23 1215.46-43.26 49.74s56.67 68.88 85.9 82.28c29.23 13.4 103.42 38.25 102.75-14.66-.67-52.9-145.39-117.36-145.39-117.36z" enable-background="new" opacity=".25" class="color7a1752 svgShape"></path><linearGradient id="v" x1="1542.638" x2="1337.331" y1="1014.498" y2="1320.32" gradientUnits="userSpaceOnUse"><stop offset=".02" stop-color="#d1e1ee" class="stopColord1e1ee svgShape"></stop><stop offset=".363" stop-color="#50a7e2" class="stopColor50a7e2 svgShape"></stop><stop offset="1" stop-color="#182b9b" class="stopColor182b9b svgShape"></stop></linearGradient><path fill="url(#v)" d="M1499.59 1325.08c43.67-66.55-141.39-207.17-224.24-152.9-37.26 24.41 15.49 33.33 70.73 102.76 105.92 133.15 129.48 86.75 153.51 50.14z"></path><path fill="#132368" d="M1488.43 1255.76c-2.37 8.29-7.57 15.41-14.59 20.5-9.56 6.93-21.43 10.08-33.04 11.26-10.98 1.12-22.2-.49-30.9-7.71-7.42-6.15-12.44-14.65-18.7-21.88-3.71-4.28-7.82-8.19-12.47-11.43-3.08-2.15-6.1-4.09-9.76-5.11-3.32-.93-6.8-1.12-10.23-.93-6.72.37-13.29 2.08-20.01 2.48-3.31.2-6.65.09-9.9-.61-3.16-.68-6.02-1.98-8.86-3.47-3.91-2.05-7.49-4.7-10.99-7.37-4.26-3.25-8.4-6.65-12.63-9.93-5.15-4-10.56-8.13-16.37-11.39 15.84 13.73 40.71 32.85 66.11 64.78 105.92 133.14 129.48 86.75 153.51 50.14 12.54-19.13 6.2-44.36-11.17-69.33z" opacity=".2" class="color132368 svgShape"></path><linearGradient id="w" x1="1243.137" x2="2283.929" y1="2520.645" y2="1639.537" gradientUnits="userSpaceOnUse"><stop offset=".02" stop-color="#d1e1ee" class="stopColord1e1ee svgShape"></stop><stop offset=".363" stop-color="#50a7e2" class="stopColor50a7e2 svgShape"></stop><stop offset="1" stop-color="#182b9b" class="stopColor182b9b svgShape"></stop></linearGradient><path fill="url(#w)" d="M2009.96 1929.69c-25.11 10.31-133.79 86.05-179.25 113.33-48.14 28.89-117.95 5.98-150.07-8.28-91.54-40.63-156.09 9.78-195 44.21-86.57 76.6-91.15 89.79-80.5 127.68 11.06 39.36 64.75 9.87 79.29-.71 123.42-89.72 140.82-47.42 182.05-19.12 47.46 32.56 138.83 10.48 167.59-21.72 102.95-115.26 130.45-121.81 183.88-120.21 86.3 2.59 105.19-26.11 104.51-55.75-2.35-102.82-112.5-59.43-112.5-59.43z"></path><path fill="#132368" d="M2007.28 2025.03c-10.48-3.03-22.31-2.48-33.03-1.54-10.06.88-20.21 2.29-30.06 4.53-15.43 3.51-28.92 10.23-40.79 20.69-5.45 4.8-10.58 9.97-15.87 14.95-5.96 5.61-12.15 12.02-19.5 15.78-6.56 3.35-13.82 4.01-21.03 4.71-9.19.89-18.42 2.48-27.31 5.04-19.5 5.62-36.84 16.63-52.28 29.58-12.86 10.78-24.56 23.79-41.49 27.97-15.83 3.9-33.34-1.34-46.07-11.03-11.77-8.96-21.2-21.52-35.56-26.59-18.28-6.46-40.01-2.18-56.88 6.26-13.38 6.69-24.25 16.95-37 24.62-10.36 6.22-21.45 11.27-32.96 14.94-19.25 6.14-42.55 9.61-61.38.22-11.98-5.98-18.78-16.26-22.26-28-36.08 36.86-36.57 51.38-28.67 79.48 11.06 39.36 64.75 9.87 79.29-.71 123.42-89.72 140.82-47.42 182.05-19.12 47.46 32.56 138.83 10.48 167.59-21.72 102.95-115.26 130.45-121.81 183.88-120.21 10 .3 19.08.18 27.34-.32-12.98-5.84-24.17-15.52-38.01-19.53z" opacity=".2" class="color132368 svgShape"></path></g><g fill="#000000" class="color000 svgShape"><path fill="#50a7e2" d="m2556.12 568.38-41.77 60.41h-64.33l74.61-100.32-76.27-96.94h65.99l46.75 59.57 41.12-59.57h64.32l-73.94 99.48 76.93 97.78h-65.99l-47.42-60.41zM1750.74 263.63c-75.39 0-136.51 61.12-136.51 136.51 0 75.39 61.12 136.53 136.51 136.53 75.39 0 136.51-61.13 136.51-136.53 0-75.39-61.12-136.51-136.51-136.51zm0 226.3c-49.58 0-89.77-40.19-89.77-89.79 0-49.58 40.19-89.77 89.77-89.77s89.77 40.19 89.77 89.77c0 49.59-40.2 89.79-89.77 89.79zM492.65 744.38l-218.6 183.14 267.9 97.74-49.3-280.88zm-25.04 68.63 26.66 151.9-144.88-52.86 118.22-99.04zM2373.29 1354.41V1566h211.6v-211.6h-211.6zm171.81 171.8h-132.01V1394.2h132.01v132.01z" class="color50a7e2 svgShape"></path></g><g fill="#000000" class="color000 svgShape"><path fill="#d1c63d" d="M543.07 702.7c-.43-4.73 3.05-8.91 7.78-9.33a8.615 8.615 0 0 1 9.34 7.8c.43 4.73-3.05 8.91-7.78 9.33a8.615 8.615 0 0 1-9.34-7.8z" class="colord1c63d svgShape"></path><path fill="#e0e10e" d="M2081.52 342.31c-.43-4.73 3.05-8.91 7.78-9.33a8.615 8.615 0 0 1 9.34 7.8c.43 4.73-3.05 8.91-7.78 9.33a8.615 8.615 0 0 1-9.34-7.8z" class="colore0e10e svgShape"></path><path fill="#d1c63d" d="M434.86 1314.33c-.43-4.73 3.05-8.91 7.78-9.33a8.615 8.615 0 0 1 9.34 7.8c.43 4.73-3.05 8.91-7.78 9.33a8.615 8.615 0 0 1-9.34-7.8zM2660.97 710.92c-.43-4.73 3.05-8.91 7.78-9.33a8.615 8.615 0 0 1 9.34 7.8c.43 4.73-3.05 8.91-7.78 9.33a8.615 8.615 0 0 1-9.34-7.8zM1874.22 739.13c-.43-4.73 3.05-8.91 7.78-9.33a8.615 8.615 0 0 1 9.34 7.8c.43 4.73-3.05 8.91-7.78 9.33a8.615 8.615 0 0 1-9.34-7.8zM2309.09 1203.44c-.43-4.73 3.05-8.91 7.78-9.33a8.615 8.615 0 0 1 9.34 7.8c.43 4.73-3.05 8.91-7.78 9.33a8.615 8.615 0 0 1-9.34-7.8z" class="colord1c63d svgShape"></path><path fill="#ffffff" d="M1567.55 476.74c-3.63 0-6.57 2.94-6.57 6.57s2.94 6.57 6.57 6.57c3.63 0 6.57-2.94 6.57-6.57s-2.94-6.57-6.57-6.57zM2028.62 688.2c-3.63 0-6.57 2.94-6.57 6.57 0 3.63 2.94 6.57 6.57 6.57 3.63 0 6.57-2.94 6.57-6.57 0-3.63-2.94-6.57-6.57-6.57zM1933.67 350.87c-3.63 0-6.57 2.94-6.57 6.57 0 3.63 2.94 6.57 6.57 6.57 3.63 0 6.57-2.94 6.57-6.57 0-3.63-2.94-6.57-6.57-6.57zM2683.52 1162.26c1.25-2.29.41-5.17-1.88-6.42a4.735 4.735 0 0 0-6.42 1.88 4.735 4.735 0 0 0 1.88 6.42c2.29 1.26 5.16.41 6.42-1.88zM2160.23 574.81a6.305 6.305 0 0 0-8.56 2.51 6.305 6.305 0 0 0 2.51 8.56c3.06 1.67 6.89.55 8.56-2.51 1.67-3.06.55-6.89-2.51-8.56zM2479.38 322.42a3.154 3.154 0 1 0-3.03 5.532 3.154 3.154 0 0 0 3.03-5.532zM2281.96 1392.39c1.67-3.06.55-6.89-2.51-8.56a6.305 6.305 0 0 0-8.56 2.51 6.305 6.305 0 0 0 2.51 8.56c3.06 1.67 6.89.55 8.56-2.51zM1874.13 1144.08c1.67-3.06.55-6.89-2.51-8.56a6.305 6.305 0 0 0-8.56 2.51 6.305 6.305 0 0 0 2.51 8.56c3.05 1.67 6.89.54 8.56-2.51zM2216.24 1162.6a3.145 3.145 0 0 0-4.28 1.25 3.154 3.154 0 0 0 5.53 3.03c.84-1.53.27-3.44-1.25-4.28zM2182.29 740.79c2.29 1.25 5.17.41 6.42-1.88s.41-5.17-1.88-6.42a4.735 4.735 0 0 0-6.42 1.88c-1.26 2.29-.41 5.16 1.88 6.42zM2454.38 1120.08a3.154 3.154 0 1 0 3.03-5.532 3.154 3.154 0 0 0-3.03 5.532zM2373.61 692.2a2.505 2.505 0 0 0-3.4 1 2.505 2.505 0 0 0 1 3.4c1.21.66 2.74.22 3.4-1 .67-1.21.22-2.73-1-3.4zM2233.45 629.82c1.21.67 2.74.22 3.4-1 .66-1.21.22-2.74-1-3.4a2.505 2.505 0 0 0-3.4 1 2.496 2.496 0 0 0 1 3.4zM2495.34 1202.73a2.502 2.502 0 0 0-3.4 1 2.505 2.505 0 0 0 1 3.4c1.21.66 2.74.22 3.4-1 .66-1.21.21-2.74-1-3.4zM2005.94 539.87a2.51 2.51 0 0 0-2.51 2.5 2.51 2.51 0 0 0 2.5 2.51 2.51 2.51 0 0 0 2.51-2.5c.01-1.38-1.11-2.5-2.5-2.51zM2547.38 975.23c-3.63 0-6.57 2.94-6.57 6.57 0 3.63 2.94 6.57 6.57 6.57 3.63 0 6.57-2.94 6.57-6.57 0-3.63-2.94-6.57-6.57-6.57zM2687.13 904.9a6.305 6.305 0 0 0-8.56 2.51 6.305 6.305 0 0 0 2.51 8.56c3.06 1.67 6.89.55 8.56-2.51 1.67-3.05.55-6.89-2.51-8.56zM434.82 1027.33c-3.63 0-6.57 2.94-6.57 6.57 0 3.63 2.94 6.57 6.57 6.57 3.63 0 6.57-2.94 6.57-6.57 0-3.63-2.94-6.57-6.57-6.57zM218.15 1002.1c-2.42 0-4.38 1.96-4.38 4.38s1.96 4.38 4.38 4.38 4.38-1.96 4.38-4.38-1.96-4.38-4.38-4.38zM446.44 687.79a6.305 6.305 0 0 0-8.56 2.51 6.305 6.305 0 0 0 2.51 8.56c3.06 1.67 6.89.55 8.56-2.51 1.67-3.05.55-6.89-2.51-8.56zM1062.54 1149.93c2.29 1.25 5.17.41 6.42-1.88s.41-5.17-1.88-6.42a4.735 4.735 0 0 0-6.42 1.88 4.726 4.726 0 0 0 1.88 6.42zM561.43 888.29a2.505 2.505 0 0 0-3.4 1 2.505 2.505 0 0 0 1 3.4c1.21.66 2.74.22 3.4-1 .66-1.22.22-2.74-1-3.4zM621.21 1134.22a2.505 2.505 0 0 0-3.4 1 2.505 2.505 0 0 0 1 3.4c1.22.66 2.74.22 3.4-1 .66-1.21.21-2.74-1-3.4z" class="colorfff svgShape"></path><linearGradient id="x" x1="2329.552" x2="2284.944" y1="737.807" y2="470.161" gradientUnits="userSpaceOnUse"><stop offset="0" stop-color="#f4f2f3" stop-opacity="0" class="stopColorf4f2f3 svgShape"></stop><stop offset="1" stop-color="#d1c63d" class="stopColord1c63d svgShape"></stop></linearGradient><path fill="url(#x)" d="M2335.02 697.28s6.37 58.87-43.47 46.42c-14.37-3.59-25.7-16.49-13.07-57.78 7.82-25.56 8.3-39.69-33.64-104.58-11.72-18.13-10.3-65.12 11.65-83.71 19.07-16.15 41.74-18.96 14.81-90.34-3.17-8.41-10.3-38.21 10.12-38.34 19.65-.13 25.4 3.82 50.88 55.7 11.45 23.32 27.22 61.11-4.44 99.91-11.11 13.61-31.35 44.26-23.79 71.3 7.15 25.51 29.29 87.94 30.95 101.42z"></path><linearGradient id="y" x1="2258.06" x2="2339.841" y1="339.371" y2="478.151" gradientUnits="userSpaceOnUse"><stop offset=".02" stop-color="#d1e1ee" class="stopColord1e1ee svgShape"></stop><stop offset=".363" stop-color="#50a7e2" class="stopColor50a7e2 svgShape"></stop><stop offset="1" stop-color="#182b9b" class="stopColor182b9b svgShape"></stop></linearGradient><path fill="url(#y)" d="m2344.21 418.03-4.42-14.01s-10.57-6.89-37.2-7.16c-20.54-.21-35.87 3.95-37.2 8.27l-4.2 12.29c-.15.22-.22.44-.22.66 0 3.5 18.64 6.34 41.63 6.34 22.99 0 41.63-2.84 41.63-6.34-.01-.03-.02-.04-.02-.05z"></path><linearGradient id="z" x1="2385.331" x2="2385.331" y1="263.044" y2="481.815" gradientUnits="userSpaceOnUse"><stop offset=".02" stop-color="#d1e1ee" class="stopColord1e1ee svgShape"></stop><stop offset=".363" stop-color="#50a7e2" class="stopColor50a7e2 svgShape"></stop><stop offset="1" stop-color="#182b9b" class="stopColor182b9b svgShape"></stop></linearGradient><path fill="url(#z)" d="M2362.76 317.05s27.24 11.37 34.56 19.32c7.32 7.96 13.01 60.24 13.01 60.24s-28.87 1.7-36.19-13.07c-7.32-14.78-13.82-30.12-13.82-30.12l2.44-36.37z"></path><path fill="#f4f2f3" d="M2398.19 350.38c.55-2.94-.62-10.84-3.41-7.9-2.79 2.95 2.94 10.38 3.41 7.9zM2394.27 339.4c1.19-4.13-7.59-7.9-8.83-4.8-1.23 3.1 8.02 7.62 8.83 4.8z" enable-background="new" opacity=".25" class="colorf4f2f3 svgShape"></path><path fill="#132368" d="M2410.34 396.62s-28.87 1.7-36.19-13.07c-7.32-14.78-13.83-30.12-13.83-30.12l2.44-36.37s6.17 2.57 13.43 6.13c-.69 18.63 2.54 53.63 33.11 64.96.67 5.12 1.04 8.47 1.04 8.47z" opacity=".1" class="color132368 svgShape"></path><linearGradient id="A" x1="2221.813" x2="2221.813" y1="263.044" y2="481.815" gradientUnits="userSpaceOnUse"><stop offset=".02" stop-color="#d1e1ee" class="stopColord1e1ee svgShape"></stop><stop offset=".363" stop-color="#50a7e2" class="stopColor50a7e2 svgShape"></stop><stop offset="1" stop-color="#182b9b" class="stopColor182b9b svgShape"></stop></linearGradient><path fill="url(#A)" d="M2244.38 317.05s-27.24 11.37-34.56 19.32c-7.32 7.96-13.01 60.24-13.01 60.24s28.87 1.7 36.19-13.07c7.32-14.78 13.82-30.12 13.82-30.12l-2.44-36.37z"></path><path fill="#f4f2f3" d="M2208.99 348.11c-.55-2.94.62-10.84 3.41-7.9 2.78 2.94-2.95 10.38-3.41 7.9zM2214.83 338.81c-1.19-4.13 7.59-7.9 8.83-4.8 1.24 3.09-8.01 7.61-8.83 4.8z" enable-background="new" opacity=".25" class="colorf4f2f3 svgShape"></path><path fill="#132368" d="M2246.82 353.42s-6.51 15.34-13.83 30.12c-7.32 14.77-36.18 13.07-36.18 13.07s.44-4.04 1.23-10.06c9.04-.83 20.05-3.81 26.59-11.95 8.36-10.42 7-35.61 5.23-50.89 7.71-3.82 14.51-6.67 14.51-6.67l2.45 36.38z" opacity=".1" class="color132368 svgShape"></path><path fill="#d1c63d" d="M2367.74 347.81c-22.21-4.61-41.27-6.61-57.38-7-48.53-1.2-70.22 12.18-70.22 12.18l-.15 1.03c-2.83-28.58-4.61-66.56-.08-102.43 3.48-27.54 14-50.05 25.52-67.24 14.31-21.36 30.16-34.52 35.9-38.92 1.4-1.07 2.2-1.62 2.24-1.64h.01c.22.15 21.42 14.75 39.53 42.66 10.97 16.92 20.79 38.71 24.13 65.14 4.2 33.34 2.96 68.49.5 96.22z" class="colord1c63d svgShape"></path><path fill="#f4f2f3" d="M2251.38 247.76c-.55-4.18 5.8-49.77 14.05-45.23s-13.02 53.08-14.05 45.23z" enable-background="new" opacity=".25" class="colorf4f2f3 svgShape"></path><path fill="#f4f2f3" d="M2248.07 258.5c0-3.88 5.78-12.39 6.2-3.92s-6.2 6.81-6.2 3.92z" enable-background="new" opacity=".25" class="colorf4f2f3 svgShape"></path><g opacity=".35" fill="#000000" class="color000 svgShape"><path fill="#bfb232" d="M2290.87 311.27c0 5.32-4.31 9.63-9.63 9.63-5.32 0-9.63-4.31-9.63-9.63s4.31-9.63 9.63-9.63c5.31-.01 9.63 4.31 9.63 9.63zM2267.09 329.87c0 2.58-2.1 4.68-4.68 4.68s-4.68-2.1-4.68-4.68a4.68 4.68 0 1 1 9.36 0z" class="colorbfb232 svgShape"></path><circle cx="2268.73" cy="283.2" r="9.32" fill="#bfb232" transform="rotate(-22.657 2268.719 283.217)" class="colorbfb232 svgShape"></circle></g><path fill="#bfb232" d="M2367.23 251.59c-3.34-26.42-13.16-48.22-24.13-65.13-2.76-4.26-5.59-8.2-8.41-11.83-12.74-1.14-25.48-2.59-38.28-2.85-7.46-.15-15.38-.06-22.88 1.47a178.73 178.73 0 0 0-6.23 8.37c2.64 2.07 5.68 3.63 8.93 4.73 10.79 3.68 22.54 3.47 33.75 4.75 9.58 1.09 20.44 3.09 26.65 11.24.16.21.13.57-.15.67-2.87 1.11-5.78 2.37-8.24 4.25-3.03 2.32-4.32 5.4-2.26 8.83 2.16 3.61 5.89 6.29 9.16 8.83 3.67 2.84 7.5 5.56 10.77 8.87 3.01 3.03 5.09 6.38 4.4 10.81-.87 5.58-5.79 8.44-9.92 11.56-2.74 2.07-4.68 4.47-6.65 7.27-1.67 2.38-3.79 5.06-4.37 7.98-.4 2.01.41 3.87 1.23 5.66 1.42 3.08 2.74 6.16 3.97 9.32 2.02 5.15 4.45 10.36 5.71 15.77.52 2.22.71 4.7-1.25 6.27-2.41 1.93-6.09 2.51-8.96 3.4-11.59 3.58-25.82 8.86-30.55 21.17-4.66 12.13 1.78 25.03 6.13 36.21 4.15 10.66 9.67 20.69 14.73 30.94h40.39s4.23-21.62 6.95-52.34c2.48-27.73 3.72-62.88-.49-96.22z" opacity=".8" class="colorbfb232 svgShape"></path><path fill="#bfb232" d="M2333.6 243.25c0 18.08-13.44 32.73-30.03 32.73-16.58 0-30.03-14.65-30.03-32.73s13.44-32.73 30.03-32.73c16.59 0 30.03 14.65 30.03 32.73z" class="colorbfb232 svgShape"></path><path fill="#d1e1ee" d="M2322.57 243.25c0 11.44-8.5 20.7-18.99 20.7-10.49 0-19-9.27-19-20.7s8.5-20.7 19-20.7c10.48-.01 18.99 9.26 18.99 20.7z" class="colord1e1ee svgShape"></path><linearGradient id="B" x1="2205.373" x2="2510.193" y1="93.74" y2="363.245" gradientUnits="userSpaceOnUse"><stop offset=".02" stop-color="#d1e1ee" class="stopColord1e1ee svgShape"></stop><stop offset=".363" stop-color="#50a7e2" class="stopColor50a7e2 svgShape"></stop><stop offset="1" stop-color="#182b9b" class="stopColor182b9b svgShape"></stop></linearGradient><path fill="url(#B)" d="M2343.1 186.46c-12.07-6.23-30.1-8.48-46.54-7.87-12.36.46-23.8 2.54-31.14 5.76 14.31-21.36 30.15-34.52 35.9-38.92 1.4-1.07 2.2-1.62 2.24-1.65h.01c.23.16 21.43 14.76 39.53 42.68z"></path><path fill="#f4f2f3" d="M2281.24 172.67c-.46-3.49 15.65-23.79 22.54-20 6.89 3.79-21.68 26.55-22.54 20z" enable-background="new" opacity=".25" class="colorf4f2f3 svgShape"></path><linearGradient id="C" x1="2110.77" x2="2415.589" y1="200.74" y2="470.245" gradientUnits="userSpaceOnUse"><stop offset=".02" stop-color="#d1e1ee" class="stopColord1e1ee svgShape"></stop><stop offset=".363" stop-color="#50a7e2" class="stopColor50a7e2 svgShape"></stop><stop offset="1" stop-color="#182b9b" class="stopColor182b9b svgShape"></stop></linearGradient><path fill="url(#C)" d="M2367.74 347.81c-2.72 30.72-6.95 52.35-6.95 52.35h-.7c0 5.93-24.1 10.76-54.26 10.99-.75.02-1.5.02-2.25.02-31.22 0-56.53-4.93-56.53-11h-.7s-3.67-18.75-6.37-46.13l.15-1.03s21.69-13.38 70.22-12.18c16.11.36 35.18 2.36 57.39 6.98z"></path><path fill="#f4f2f3" d="M2257.5 387.91c-6.35-3.42-11.07-34.54-2.99-31.11 8.08 3.44 8.36 34 2.99 31.11z" enable-background="new" opacity=".25" class="colorf4f2f3 svgShape"></path><path fill="#132368" d="M2367.74 347.81c-2.72 30.72-6.95 52.35-6.95 52.35h-.7c0 5.93-24.1 10.76-54.26 10.99-.75.02-1.5.02-2.25.02-31.22 0-56.53-4.93-56.53-11h-.7s-.22-1.1-.58-3.17c17.65 5.16 44.58 4.81 62.88-7.4 15.67-10.45 2.02-33.31-10.21-48.78 3.78-.09 7.74-.1 11.92.01 16.1.36 35.17 2.36 57.38 6.98z" opacity=".1" class="color132368 svgShape"></path></g></svg></g></svg>